<?xml version="1.0" standalone="no"?>
<!DOCTYPE svg PUBLIC "-//W3C//DTD SVG 20010904//EN"
 "http://www.w3.org/TR/2001/REC-SVG-20010904/DTD/svg10.dtd">
<svg version="1.0" xmlns="http://www.w3.org/2000/svg"
 width="800.000000pt" height="800.000000pt" viewBox="0 0 800.000000 800.000000"
 preserveAspectRatio="xMidYMid meet">

<g transform="translate(0.000000,800.000000) scale(0.100000,-0.100000)"
fill="#000000" stroke="none">
<path d="M4088 7424 c-2 -2 -26 -6 -54 -9 -57 -7 -84 -25 -37 -25 18 0 34 -4
38 -9 8 -14 -28 -31 -53 -24 -13 3 -22 1 -22 -6 0 -6 6 -11 14 -11 21 0 27
-28 8 -39 -13 -8 -8 -10 22 -8 46 2 60 -18 18 -26 -58 -12 -86 -107 -32 -107
13 0 17 -5 14 -15 -8 -20 24 -31 47 -17 22 14 59 16 59 3 0 -5 -6 -12 -12 -14
-8 -3 -6 -6 5 -6 24 -1 21 -18 -5 -24 -29 -8 -42 1 -27 19 9 11 8 14 -3 14 -7
0 -21 -9 -31 -20 -9 -11 -24 -20 -32 -20 -22 0 -18 -28 5 -35 16 -5 18 -10 9
-26 -7 -13 -16 -18 -29 -14 -10 3 -35 -1 -55 -10 -21 -8 -57 -15 -81 -15 -23
0 -46 -4 -49 -10 -3 -5 -19 -10 -35 -10 -31 0 -80 -19 -80 -30 0 -4 16 -11 35
-14 37 -7 39 -30 3 -42 -19 -6 -19 -6 -1 -20 16 -12 12 -14 -37 -16 -30 -1
-65 -2 -77 -2 -27 0 -30 -11 -5 -25 16 -10 16 -10 -2 -11 -16 0 -17 -3 -8 -12
26 -26 11 -31 -75 -24 -86 7 -87 7 -70 -12 15 -16 15 -21 3 -31 -24 -20 -184
-62 -211 -55 -14 3 -25 2 -25 -4 0 -5 -14 -15 -30 -22 -36 -15 -34 -34 3 -38
15 -2 27 -8 27 -13 0 -6 -8 -9 -17 -8 -22 2 -83 -22 -83 -33 0 -4 8 -9 18 -9
23 -2 24 -2 43 6 22 8 43 -39 29 -66 -12 -21 -12 -21 -33 -13 -9 3 -13 13 -9
26 4 15 2 19 -7 13 -7 -4 -11 -15 -8 -25 3 -11 -5 -27 -18 -40 -20 -19 -26
-20 -67 -9 -35 10 -44 16 -41 30 3 9 16 20 29 23 13 4 24 11 24 16 0 14 -34
12 -48 -2 -9 -9 -12 -7 -12 10 0 17 -6 22 -25 22 -15 0 -25 -6 -25 -14 0 -8
-7 -17 -16 -20 -8 -3 -12 -11 -9 -17 4 -6 -6 -27 -23 -48 -26 -32 -28 -39 -15
-47 12 -8 13 -15 6 -29 -17 -32 -37 -228 -27 -271 4 -22 7 -52 6 -69 -2 -17 1
-25 5 -19 4 6 18 16 31 23 12 6 22 18 22 25 0 7 9 21 20 31 11 10 20 25 20 33
0 12 -4 12 -20 -3 -11 -10 -20 -24 -20 -31 0 -14 -18 -29 -26 -21 -5 4 30 83
42 96 2 2 10 -2 19 -9 10 -8 15 -9 15 -1 0 19 54 89 72 94 14 4 17 12 12 36
-5 24 -3 31 9 31 10 0 14 6 11 14 -3 8 7 18 25 26 40 16 61 8 54 -21 -4 -14
-2 -20 4 -16 6 4 13 21 17 38 4 22 10 30 21 25 17 -6 21 9 5 19 -17 11 -11 43
10 50 11 3 20 13 20 21 0 8 5 14 10 14 19 0 10 19 -11 22 -19 3 -22 10 -23 53
-1 28 -5 56 -10 63 -11 18 -1 26 21 16 17 -7 26 -9 66 -13 18 -1 25 -31 6 -31
-6 0 -4 -7 5 -15 13 -14 12 -18 -12 -43 l-27 -27 24 -3 c13 -2 26 0 30 6 3 5
16 14 29 21 28 15 29 35 2 26 -19 -6 -20 -3 -14 22 3 15 12 33 19 38 6 6 10
16 8 23 -3 7 4 12 15 12 11 0 22 -6 24 -12 4 -10 10 -10 32 0 41 18 66 15 66
-8 0 -24 -2 -24 45 -4 20 8 59 15 86 16 27 0 49 4 49 10 0 6 16 7 40 3 30 -5
44 -3 56 10 12 11 25 14 47 9 l31 -6 -30 25 c-34 31 -18 35 37 10 42 -20 50
-33 19 -33 -12 0 -17 -5 -14 -14 3 -9 -10 -17 -43 -25 -26 -7 -56 -17 -65 -22
-10 -5 -27 -9 -38 -9 -21 0 -27 -15 -10 -25 6 -3 10 -15 10 -25 0 -17 2 -18
28 -4 45 23 62 14 62 -37 0 -10 5 -19 10 -19 6 0 9 14 8 32 -3 38 22 50 51 24
10 -9 25 -14 33 -11 8 3 28 -4 44 -17 43 -35 81 -58 97 -58 7 0 20 -12 28 -26
7 -15 23 -30 34 -35 14 -7 3 -8 -34 -5 -29 3 -65 13 -78 22 -19 12 -24 13 -21
2 11 -35 149 -79 265 -85 66 -4 86 -8 96 -23 7 -10 24 -18 37 -19 39 0 94 -12
108 -24 7 -6 43 -10 80 -9 62 0 69 3 93 32 23 27 28 29 39 15 13 -15 40 -21
40 -7 0 15 47 28 75 21 33 -9 49 -3 41 17 -4 11 1 13 19 8 20 -5 27 -1 35 20
11 29 28 34 36 11 9 -22 30 -18 52 10 19 24 40 36 27 15 -9 -15 18 -50 38 -50
14 0 17 5 13 18 -5 15 -4 15 6 2 14 -16 37 -22 81 -21 15 0 25 -3 23 -8 -11
-17 30 -40 72 -39 26 0 50 -6 61 -16 10 -9 27 -16 39 -16 12 0 29 -11 38 -25
10 -15 26 -25 40 -25 12 0 26 -5 29 -10 5 -8 11 -8 20 0 11 9 14 6 17 -12 2
-18 10 -23 36 -25 38 -2 65 -20 58 -40 -8 -20 42 -40 102 -41 62 -1 78 -8 62
-27 -8 -10 -6 -15 9 -20 12 -3 21 -12 21 -19 0 -13 43 -28 83 -30 21 -1 77
-71 77 -97 0 -9 7 -22 15 -29 8 -7 15 -17 15 -22 0 -6 6 -24 14 -41 30 -67
106 -305 117 -370 9 -45 21 -77 36 -93 15 -17 21 -30 15 -37 -5 -7 -2 -30 8
-57 l17 -44 5 39 c3 22 4 76 3 119 -1 65 -5 81 -21 93 -15 11 -16 15 -5 22 11
7 12 15 1 42 -7 19 -17 54 -22 79 -5 25 -12 58 -15 73 -3 16 -12 31 -19 34 -8
3 -14 11 -14 18 0 8 -17 27 -37 44 -28 23 -33 31 -19 31 16 0 18 5 12 40 -5
32 -3 42 10 47 14 5 15 16 10 70 -6 62 -20 113 -34 123 -4 3 -13 16 -20 30
-27 53 -69 117 -104 158 -15 18 -28 38 -28 45 -1 7 -15 21 -33 32 -17 11 -41
35 -52 52 -11 18 -25 32 -31 33 -6 0 -28 28 -50 62 -46 75 -65 98 -80 98 -10
0 -28 40 -21 46 8 7 47 -18 47 -31 0 -8 5 -15 12 -15 6 0 20 -7 30 -17 10 -9
18 -11 18 -5 0 6 -21 28 -47 49 -39 32 -103 91 -255 236 -22 21 -26 21 -43 3
-12 -11 -12 -16 1 -32 9 -11 13 -14 10 -7 -4 6 -2 14 4 18 5 3 10 -2 10 -12 0
-15 2 -15 10 -3 7 11 11 9 19 -13 6 -16 11 -32 11 -37 0 -5 7 -7 15 -4 16 6
85 -62 85 -85 0 -7 6 -11 13 -9 6 3 19 -3 27 -11 18 -19 27 -77 11 -67 -6 4
-11 13 -11 20 0 14 -74 86 -88 86 -5 0 -30 20 -56 45 -27 25 -52 45 -57 45 -4
0 -43 30 -86 67 -102 88 -103 90 -103 103 0 7 -6 10 -14 7 -9 -4 -22 7 -35 29
-24 41 -44 43 -60 7 -9 -20 -15 -23 -24 -14 -8 8 -8 19 0 41 10 27 9 30 -8 30
-11 0 -23 -9 -27 -19 -7 -19 -8 -19 -46 0 -21 10 -49 16 -61 13 -13 -3 -27 1
-34 10 -8 9 -19 16 -26 16 -8 0 -11 8 -8 18 2 10 -3 24 -11 31 -11 9 -16 10
-16 2 0 -16 -25 -14 -40 4 -10 13 -9 15 9 15 11 0 21 5 21 11 0 6 -17 9 -42 8
-44 -3 -87 13 -101 38 -5 9 -17 12 -30 8 -17 -5 -19 -4 -7 4 13 9 13 11 -2 11
-10 0 -18 4 -18 10 0 5 -20 15 -45 21 -43 11 -64 39 -29 39 20 0 101 -37 109
-50 11 -17 31 -11 32 11 2 22 -76 79 -109 79 -10 0 -18 5 -18 11 0 7 -10 9
-25 6 -18 -3 -29 1 -36 14 -14 28 -59 47 -138 61 -57 10 -75 9 -95 -2 -18 -9
-29 -10 -38 -3 -12 10 -152 16 -160 7z m68 -61 c9 -13 28 -18 66 -19 75 -2 78
-3 78 -15 0 -6 -7 -8 -16 -5 -9 3 -34 1 -55 -6 -33 -9 -45 -9 -72 4 -28 13
-36 14 -51 2 -21 -15 -36 -10 -36 12 0 8 10 14 24 14 13 0 26 7 30 15 7 20 16
19 32 -2z m276 -15 c-20 -20 -14 -36 16 -40 23 -4 24 -5 9 -12 -11 -5 -29 -4
-45 4 -15 7 -40 14 -55 15 -16 2 -34 8 -40 15 -9 9 -3 11 30 5 34 -5 44 -4 49
9 3 9 16 16 27 16 16 0 18 -3 9 -12z m88 -43 c7 -9 10 -19 6 -22 -8 -9 -38 9
-44 25 -5 17 23 15 38 -3z m-253 -1 c-3 -3 -12 -4 -19 -1 -8 3 -5 6 6 6 11 1
17 -2 13 -5z m33 -4 c0 -5 -4 -10 -10 -10 -5 0 -10 5 -10 10 0 6 5 10 10 10 6
0 10 -4 10 -10z m360 -21 c0 -5 -6 -9 -13 -9 -8 0 -14 6 -14 14 0 8 6 12 14 9
7 -3 13 -9 13 -14z m-363 -25 c-3 -3 -12 -4 -19 -1 -8 3 -5 6 6 6 11 1 17 -2
13 -5z m173 -4 c8 -5 11 -12 8 -16 -10 -9 -38 3 -38 16 0 12 10 13 30 0z m117
-56 c-9 -9 -28 6 -21 18 4 6 10 6 17 -1 6 -6 8 -13 4 -17z m-347 6 c0 -5 -2
-10 -4 -10 -3 0 -8 5 -11 10 -3 6 -1 10 4 10 6 0 11 -4 11 -10z m-184 -37 c-8
-8 -36 5 -36 17 0 7 6 7 21 0 11 -7 18 -14 15 -17z m165 -4 c-14 -14 -28 -18
-39 -13 -9 4 -21 6 -26 5 -17 -4 -37 9 -31 19 3 5 32 10 62 10 l57 0 -23 -21z
m279 0 c0 -11 -4 -17 -10 -14 -5 3 -10 13 -10 21 0 8 5 14 10 14 6 0 10 -9 10
-21z m-207 -33 c9 -7 17 -21 17 -30 0 -13 7 -15 42 -10 31 5 39 4 34 -5 -4 -7
-15 -11 -24 -10 -10 1 -24 -1 -33 -5 -25 -11 -68 -12 -71 -1 -2 6 7 11 20 13
30 4 28 20 -4 32 -14 6 -22 14 -19 20 8 13 16 12 38 -4z m-70 -21 c-1 -5 3
-15 8 -21 9 -11 2 -24 -12 -24 -4 0 -14 14 -23 31 -15 29 -14 30 7 27 12 -2
21 -7 20 -13z m261 1 c-4 -10 6 -20 32 -31 48 -20 41 -27 -14 -12 -39 10 -54
31 -35 50 12 12 23 7 17 -7z m-299 -36 c-3 -5 -23 -9 -43 -9 l-37 1 30 8 c44
11 57 11 50 0z m485 -14 c0 -21 -21 -31 -31 -15 -14 22 -11 29 11 29 11 0 20
-6 20 -14z m190 -6 c3 -4 16 -11 29 -15 26 -8 71 -45 55 -45 -5 0 -21 6 -36
14 -14 8 -46 17 -70 21 -40 6 -42 6 -23 -8 32 -25 12 -28 -29 -6 -24 13 -48
18 -62 15 -35 -9 -29 8 9 27 32 17 116 15 127 -3z m-663 -24 c-2 -6 -23 -12
-46 -14 -32 -2 -42 0 -39 10 5 15 45 26 71 20 10 -3 16 -10 14 -16z m399 -12
c-7 -14 -17 -19 -33 -16 -13 2 -23 0 -23 -5 0 -10 38 -25 188 -74 40 -14 60
-25 54 -31 -6 -6 -47 4 -112 26 -56 20 -112 36 -124 36 -12 0 -31 6 -41 14
-17 12 -17 16 -6 30 18 21 8 30 -24 22 -24 -6 -36 -26 -15 -26 6 0 10 -4 10
-10 0 -5 -9 -10 -19 -10 -14 0 -22 -12 -32 -45 -7 -24 -15 -42 -17 -40 -3 2
-8 23 -12 46 -7 40 -6 44 27 75 34 32 37 33 112 31 74 -2 76 -3 67 -23z m-516
-4 c0 -5 -9 -10 -20 -10 -11 0 -20 5 -20 10 0 6 9 10 20 10 11 0 20 -4 20 -10z
m831 -45 c13 -3 33 -16 45 -30 13 -16 26 -24 36 -20 17 7 34 -27 23 -45 -11
-18 -31 -11 -64 23 -48 49 -67 64 -90 72 -21 6 -26 16 -14 28 3 4 14 0 23 -8
10 -9 28 -18 41 -20z m-81 -15 c0 -5 -4 -10 -9 -10 -6 0 -13 5 -16 10 -3 6 1
10 9 10 9 0 16 -4 16 -10z m-797 -17 c-7 -2 -21 -2 -30 0 -10 3 -4 5 12 5 17
0 24 -2 18 -5z m842 -3 c3 -5 -1 -10 -9 -10 -9 0 -16 5 -16 10 0 6 4 10 9 10
6 0 13 -4 16 -10z m45 -43 c-1 -21 -1 -21 -15 -3 -8 10 -12 23 -9 28 9 14 24
-2 24 -25z m-79 -8 c11 -5 17 -14 14 -20 -7 -11 -45 7 -45 21 0 13 7 13 31 -1z
m-376 -9 c3 -5 1 -10 -4 -10 -6 0 -11 5 -11 10 0 6 2 10 4 10 3 0 8 -4 11 -10z
m-45 -20 c0 -5 -4 -10 -10 -10 -5 0 -10 5 -10 10 0 6 5 10 10 10 6 0 10 -4 10
-10z m463 -40 c14 -11 35 -20 46 -20 12 0 30 -9 41 -20 11 -11 28 -20 38 -20
11 0 27 -9 37 -20 10 -11 13 -20 7 -20 -6 0 -14 5 -17 10 -4 6 -14 10 -23 9
-10 -1 -30 4 -47 11 -16 7 -43 13 -60 14 -16 1 -42 3 -57 4 -39 3 -35 22 5 23
32 0 32 0 10 16 -23 16 -30 33 -14 33 4 0 20 -9 34 -20z m-1033 0 c0 -5 -2
-10 -4 -10 -3 0 -8 5 -11 10 -3 6 -1 10 4 10 6 0 11 -4 11 -10z m66 -4 c10 -8
16 -18 11 -22 -9 -10 -58 16 -51 28 7 12 17 10 40 -6z m-156 -16 c0 -13 -11
-13 -30 0 -12 8 -11 10 8 10 12 0 22 -4 22 -10z m225 -20 c3 -5 -1 -10 -9 -10
-9 0 -16 5 -16 10 0 6 4 10 9 10 6 0 13 -4 16 -10z m168 -77 c-7 -2 -21 -2
-30 0 -10 3 -4 5 12 5 17 0 24 -2 18 -5z m136 -9 c2 -2 -14 -4 -37 -4 -22 0
-44 5 -47 11 -5 7 7 8 37 4 23 -4 45 -9 47 -11z m-606 -1 c-7 -2 -19 -2 -25 0
-7 3 -2 5 12 5 14 0 19 -2 13 -5z m334 1 c-3 -3 -12 -4 -19 -1 -8 3 -5 6 6 6
11 1 17 -2 13 -5z m400 0 c-3 -3 -12 -4 -19 -1 -8 3 -5 6 6 6 11 1 17 -2 13
-5z m-829 -16 c-5 -15 -33 -22 -54 -14 -24 9 -6 26 27 26 20 0 29 -4 27 -12z
m-283 -28 c-3 -5 -10 -10 -16 -10 -5 0 -9 5 -9 10 0 6 7 10 16 10 8 0 12 -4 9
-10z m630 -10 c3 -5 1 -10 -4 -10 -6 0 -11 5 -11 10 0 6 2 10 4 10 3 0 8 -4
11 -10z m-155 -60 c0 -5 -4 -10 -10 -10 -5 0 -10 5 -10 10 0 6 5 10 10 10 6 0
10 -4 10 -10z m250 -10 c0 -5 -4 -10 -9 -10 -6 0 -13 5 -16 10 -3 6 1 10 9 10
9 0 16 -4 16 -10z m76 -5 l29 -16 -29 3 c-16 2 -31 9 -34 16 -5 16 0 15 34 -3z
m1154 -35 c0 -5 -2 -10 -4 -10 -3 0 -8 5 -11 10 -3 6 -1 10 4 10 6 0 11 -4 11
-10z m-1140 -20 c0 -5 -2 -10 -4 -10 -3 0 -8 5 -11 10 -3 6 -1 10 4 10 6 0 11
-4 11 -10z m170 -14 c0 -11 -19 -15 -25 -6 -3 5 1 10 9 10 9 0 16 -2 16 -4z
m-1096 -63 c-8 -36 -29 -57 -44 -48 -9 6 -8 10 4 17 9 5 16 15 16 21 0 12 19
37 27 37 2 0 0 -12 -3 -27z m-132 -19 c-12 -8 -28 -12 -34 -8 -9 6 -5 10 12
15 41 11 46 10 22 -7z m-59 -16 c4 -15 -24 -77 -35 -78 -11 0 -10 19 4 57 13
34 23 42 31 21z m1192 -8 c3 -5 -1 -10 -10 -10 -9 0 -13 5 -10 10 3 6 8 10 10
10 2 0 7 -4 10 -10z m-1095 -10 c12 -8 11 -10 -7 -10 -13 0 -23 5 -23 10 0 13
11 13 30 0z m-10 -40 c0 -5 -4 -10 -9 -10 -6 0 -13 5 -16 10 -3 6 1 10 9 10 9
0 16 -4 16 -10z m-123 -96 c-6 -19 -14 -34 -19 -34 -13 0 -9 -28 5 -34 9 -3 7
-9 -5 -19 -10 -8 -18 -19 -18 -26 0 -6 -4 -11 -8 -11 -13 0 -5 54 24 157 2 7
10 10 17 7 12 -4 13 -12 4 -40z m65 24 c-7 -7 -12 -8 -12 -2 0 14 12 26 19 19
2 -3 -1 -11 -7 -17z m-22 -16 c0 -5 -9 -17 -20 -27 -22 -20 -26 -14 -10 16 11
19 30 26 30 11z m2910 -33 c0 -5 -4 -9 -10 -9 -5 0 -10 7 -10 16 0 8 5 12 10
9 6 -3 10 -10 10 -16z m78 -81 c-6 -18 -28 -21 -28 -4 0 9 7 16 16 16 9 0 14
-5 12 -12z m22 -113 c0 -8 -7 -15 -15 -15 -16 0 -20 12 -8 23 11 12 23 8 23
-8z m45 -194 c-3 -6 -11 -8 -17 -5 -6 4 -5 9 3 15 16 10 23 4 14 -10z m90
-211 c-3 -5 -12 -10 -18 -10 -7 0 -6 4 3 10 19 12 23 12 15 0z"/>
<path d="M3886 7384 c-9 -22 -3 -26 27 -19 38 10 43 35 8 35 -18 0 -31 -6 -35
-16z"/>
<path d="M3805 7290 c-18 -8 -18 -9 5 -9 14 0 32 4 40 9 12 8 12 10 -5 9 -11
0 -29 -4 -40 -9z"/>
<path d="M3900 7270 c-12 -8 -11 -10 7 -10 12 0 27 -9 33 -21 15 -27 24 -17
16 16 -7 26 -29 32 -56 15z"/>
<path d="M3634 7215 c-17 -7 -51 -16 -75 -20 -71 -12 -83 -27 -15 -20 62 7
146 37 130 47 -5 4 -23 0 -40 -7z"/>
<path d="M4735 7220 c3 -5 11 -10 16 -10 6 0 7 5 4 10 -3 6 -11 10 -16 10 -6
0 -7 -4 -4 -10z"/>
<path d="M3341 7184 c-1 -23 -45 -46 -151 -79 -69 -21 -140 -57 -140 -70 0
-10 -27 -25 -104 -59 -34 -15 -38 -15 -33 -1 7 18 3 19 -23 5 -11 -6 -16 -17
-13 -28 5 -20 -37 -49 -56 -38 -5 4 -18 -5 -27 -19 -11 -17 -23 -24 -34 -20
-9 3 -23 -1 -30 -10 -7 -8 -18 -15 -24 -15 -7 0 -25 -14 -42 -32 -16 -17 -23
-27 -15 -23 9 5 12 4 7 -3 -4 -7 -13 -12 -21 -12 -7 0 -23 -13 -35 -30 -12
-16 -27 -30 -35 -30 -7 0 -15 -7 -18 -15 -4 -8 -21 -18 -38 -23 -26 -6 -45
-26 -90 -92 -32 -46 -67 -91 -79 -100 -13 -10 -23 -30 -25 -49 -1 -18 -7 -36
-12 -40 -6 -3 -12 -23 -15 -44 -4 -33 -1 -38 19 -43 15 -4 31 0 42 10 22 20
31 20 31 2 0 -12 6 -13 30 -5 32 12 38 27 18 47 -9 9 -7 12 13 12 30 0 51 13
47 30 -2 7 3 15 10 17 8 3 10 -1 5 -12 -5 -15 -3 -16 14 -7 27 15 73 83 73
109 0 16 5 20 19 16 13 -3 20 2 25 20 3 14 37 58 76 98 38 41 70 81 70 90 0
19 23 31 44 23 8 -3 30 11 50 31 35 35 60 41 62 17 1 -7 2 -16 3 -22 0 -5 11
-10 23 -10 17 0 19 3 10 12 -24 24 -14 40 21 36 27 -3 33 0 30 12 -3 9 -14 16
-25 16 -12 -1 -23 5 -25 12 -6 16 27 16 52 -2 38 -25 74 -25 113 2 21 14 59
27 87 31 47 6 50 8 53 37 3 26 -3 36 -26 53 -37 26 -52 27 -52 2 0 -26 -17
-36 -35 -21 -9 7 -20 8 -32 2 -10 -5 -32 -16 -48 -25 -24 -12 -33 -13 -47 -3
-15 11 -13 16 20 47 53 50 108 89 126 89 8 0 34 8 58 18 24 11 68 21 99 25 50
5 147 42 137 52 -2 2 -37 -7 -78 -21 -85 -28 -92 -29 -67 -9 12 8 17 22 14 37
-4 21 -4 21 -6 2z m-81 -234 c0 -5 -7 -10 -15 -10 -8 0 -15 5 -15 10 0 6 7 10
15 10 8 0 15 -4 15 -10z m-145 -29 c-18 -15 -95 -23 -95 -9 0 9 18 14 52 16
30 1 48 -2 43 -7z m-770 -571 c-5 -8 -11 -8 -17 -2 -6 6 -7 16 -3 22 5 8 11 8
17 2 6 -6 7 -16 3 -22z"/>
<path d="M3860 7190 c0 -6 7 -13 15 -16 8 -3 17 -14 20 -25 4 -10 15 -19 26
-19 26 0 24 19 -3 29 -14 5 -17 10 -10 15 22 13 12 26 -18 26 -16 0 -30 -5
-30 -10z"/>
<path d="M3750 7169 c0 -5 5 -8 12 -6 7 1 14 -11 18 -28 3 -16 9 -29 13 -27 4
1 14 2 22 2 10 0 15 10 15 34 0 34 -1 35 -40 34 -22 0 -40 -4 -40 -9z"/>
<path d="M3683 7163 c-7 -2 -13 -11 -13 -19 0 -17 -17 -19 -23 -1 -3 9 -10 7
-23 -5 -18 -17 -11 -24 19 -19 4 0 7 -6 7 -14 0 -8 -4 -15 -10 -15 -5 0 -10
-9 -10 -20 0 -11 -5 -20 -12 -20 -6 0 -9 -3 -6 -6 4 -3 16 0 29 6 19 11 24 10
35 -5 15 -21 8 -41 -9 -27 -20 16 -68 -19 -82 -60 -10 -31 -10 -38 0 -38 7 0
15 11 19 24 5 19 17 26 73 40 38 9 87 16 111 16 27 0 45 5 48 14 3 8 21 17 40
21 24 4 38 13 44 29 5 13 15 27 22 30 7 3 -9 4 -35 2 -53 -4 -69 -13 -47 -26
8 -5 11 -12 7 -17 -5 -4 -12 -1 -17 7 -7 12 -12 11 -29 -4 -11 -10 -18 -23
-15 -27 9 -15 -6 -10 -23 7 -9 8 -23 12 -32 9 -27 -11 -33 -10 -38 2 -2 6 10
19 27 28 l31 16 -22 39 c-21 38 -37 45 -66 33z"/>
<path d="M3517 7124 c-8 -8 1 -24 13 -24 4 0 10 7 14 15 5 15 -14 21 -27 9z"/>
<path d="M4900 7120 c0 -5 3 -10 8 -10 4 0 15 -12 24 -27 14 -24 17 -25 15 -7
-1 20 -47 64 -47 44z"/>
<path d="M3446 7090 c-18 -6 -18 -7 -2 -13 25 -10 46 -9 46 2 0 13 -22 19 -44
11z"/>
<path d="M3284 7078 c-8 -13 15 -28 45 -28 19 0 21 3 12 14 -15 18 -49 27 -57
14z"/>
<path d="M3465 7010 c-3 -5 -14 -10 -25 -10 -10 0 -21 -7 -24 -16 -9 -23 -8
-24 13 -24 26 0 81 32 81 48 0 14 -36 16 -45 2z"/>
<path d="M3360 7000 c0 -5 7 -10 15 -10 8 0 15 5 15 10 0 6 -7 10 -15 10 -8 0
-15 -4 -15 -10z"/>
<path d="M3491 6946 c-8 -9 -11 -19 -7 -23 9 -9 29 13 24 27 -2 8 -8 7 -17 -4z"/>
<path d="M3532 6938 c-16 -16 -15 -28 2 -28 19 0 27 13 17 28 -5 9 -10 9 -19
0z"/>
<path d="M3353 6917 c-26 -31 -36 -77 -15 -77 8 0 20 7 27 16 6 9 24 17 38 17
21 0 27 4 27 22 0 13 -8 25 -17 29 -10 3 -23 8 -29 11 -5 3 -19 -5 -31 -18z"/>
<path d="M5300 6930 c0 -5 5 -10 11 -10 5 0 7 5 4 10 -3 6 -8 10 -11 10 -2 0
-4 -4 -4 -10z"/>
<path d="M5336 6915 c-3 -8 -1 -15 4 -15 6 0 10 7 10 15 0 8 -2 15 -4 15 -2 0
-6 -7 -10 -15z"/>
<path d="M5380 6876 c0 -17 14 -29 23 -20 8 8 -3 34 -14 34 -5 0 -9 -6 -9 -14z"/>
<path d="M3035 6790 c3 -5 8 -10 11 -10 2 0 4 5 4 10 0 6 -5 10 -11 10 -5 0
-7 -4 -4 -10z"/>
<path d="M3363 6763 c9 -2 25 -2 35 0 9 3 1 5 -18 5 -19 0 -27 -2 -17 -5z"/>
<path d="M2965 6750 c3 -5 13 -10 21 -10 8 0 14 5 14 10 0 6 -9 10 -21 10 -11
0 -17 -4 -14 -10z"/>
<path d="M3215 6749 c-12 -19 3 -22 27 -5 l22 16 -21 0 c-12 0 -25 -5 -28 -11z"/>
<path d="M2902 6711 c-13 -30 -7 -64 12 -58 6 2 12 13 14 25 2 12 8 22 13 22
16 0 10 19 -9 29 -14 8 -20 4 -30 -18z"/>
<path d="M2732 6635 c-6 -14 -7 -25 -2 -25 9 0 25 39 18 46 -3 2 -10 -7 -16
-21z"/>
<path d="M3020 6650 c0 -5 5 -10 11 -10 5 0 7 5 4 10 -3 6 -8 10 -11 10 -2 0
-4 -4 -4 -10z"/>
<path d="M2837 6629 c5 -17 2 -20 -18 -17 -16 2 -25 -2 -27 -14 -3 -15 1 -16
30 -7 53 15 70 12 63 -11 -9 -28 4 -25 14 3 7 17 3 27 -16 45 -31 28 -53 29
-46 1z"/>
<path d="M2990 6594 c0 -12 -6 -15 -23 -10 -25 6 -67 -17 -55 -30 13 -12 113
21 116 39 2 12 -3 17 -17 17 -13 0 -21 -6 -21 -16z"/>
<path d="M3125 6600 c-3 -5 1 -10 9 -10 9 0 16 5 16 10 0 6 -4 10 -9 10 -6 0
-13 -4 -16 -10z"/>
<path d="M3588 6572 c-15 -30 -12 -122 4 -122 6 0 8 14 6 32 -5 32 -3 39 20
85 9 17 8 22 -3 27 -9 3 -19 -6 -27 -22z"/>
<path d="M3256 6581 c-7 -11 22 -23 35 -15 5 3 7 10 4 15 -8 12 -32 12 -39 0z"/>
<path d="M3520 6563 c0 -4 5 -15 10 -23 8 -13 10 -13 10 2 0 9 -4 20 -10 23
-5 3 -10 3 -10 -2z"/>
<path d="M3690 6556 c0 -13 -5 -17 -20 -13 -22 6 -27 -12 -8 -31 18 -18 27
-15 39 15 7 18 6 30 -1 37 -7 7 -10 4 -10 -8z"/>
<path d="M5760 6531 c0 -6 5 -13 10 -16 6 -3 10 1 10 9 0 9 -4 16 -10 16 -5 0
-10 -4 -10 -9z"/>
<path d="M2796 6496 c-22 -30 -31 -35 -42 -25 -11 9 -14 7 -14 -13 0 -27 -21
-78 -33 -78 -4 0 -33 -27 -64 -60 -31 -33 -62 -60 -70 -60 -19 0 -5 23 51 85
34 38 42 52 31 58 -21 11 -81 -26 -77 -49 2 -16 1 -17 -7 -4 -6 8 -11 13 -12
10 0 -3 -2 -18 -4 -34 -4 -29 -35 -72 -35 -48 0 7 -7 12 -15 12 -22 0 -18 37
6 54 12 8 18 19 14 25 -10 18 -25 13 -34 -12 -12 -32 -119 -137 -139 -137 -7
0 -20 -16 -29 -35 -10 -20 -25 -35 -37 -37 -15 -2 -20 -9 -18 -24 3 -25 -22
-51 -33 -34 -4 7 -2 17 4 23 6 6 11 25 11 43 0 17 7 45 15 60 8 16 12 37 9 47
-3 11 0 17 10 17 26 0 26 16 0 30 -23 13 -27 11 -53 -17 l-28 -31 26 -13 c20
-10 22 -13 9 -16 -22 -5 -31 -32 -16 -50 10 -12 7 -13 -15 -8 -24 7 -28 4 -33
-25 -4 -17 -15 -37 -25 -43 -11 -7 -19 -20 -19 -29 0 -11 -8 -18 -20 -18 -14
0 -18 -5 -13 -16 4 -10 0 -20 -10 -26 -13 -6 -17 -23 -17 -61 0 -29 -4 -58 -9
-66 -12 -18 -2 -44 14 -37 19 7 27 -5 14 -21 -9 -10 -7 -19 5 -38 20 -30 26
-31 49 -5 22 26 22 28 -8 25 -14 -2 -25 -1 -25 2 0 15 23 43 36 43 8 0 12 5 9
10 -3 6 -19 10 -35 10 -30 0 -48 14 -31 25 6 3 8 11 5 18 -5 15 65 72 76 61 5
-5 12 -22 15 -37 7 -27 7 -27 -19 -16 -21 10 -29 10 -39 0 -9 -9 -9 -14 3 -21
8 -6 22 -9 30 -8 8 0 28 -2 44 -7 17 -5 31 -4 35 2 3 6 15 12 26 14 12 3 23
16 27 34 l7 30 -3 -32 c-1 -19 3 -34 10 -37 16 -6 20 -1 29 41 3 18 11 35 16
38 13 8 11 -52 -2 -77 -15 -28 -19 -88 -6 -88 6 0 8 3 4 6 -3 3 6 24 20 46 14
23 31 57 37 77 9 24 20 37 34 39 19 3 20 6 9 23 -10 17 -9 23 7 35 11 8 30 14
42 14 22 0 38 14 39 35 2 21 25 65 35 65 5 0 38 27 72 60 34 32 64 57 67 55 2
-3 -2 -11 -9 -20 -28 -34 9 -12 59 35 55 52 56 61 3 34 -18 -8 -36 -13 -41
-10 -5 3 -29 -13 -55 -35 -25 -22 -46 -36 -46 -30 0 17 62 76 95 91 17 7 37
27 46 44 10 19 28 35 49 42 18 6 37 20 41 31 4 11 15 23 25 27 16 6 16 8 -4
22 -12 8 -26 13 -31 10 -5 -4 -11 -1 -13 5 -2 6 -16 -5 -32 -25z m-296 -256
c0 -5 -12 -10 -26 -10 -14 0 -23 4 -19 10 3 6 15 10 26 10 10 0 19 -4 19 -10z
m10 -40 c0 -5 -7 -10 -15 -10 -8 0 -15 5 -15 10 0 6 7 10 15 10 8 0 15 -4 15
-10z m-320 -125 c-7 -9 -15 -13 -17 -11 -7 7 7 26 19 26 6 0 6 -6 -2 -15z m27
-32 c-4 -3 -2 -12 5 -20 15 -18 12 -19 -59 -26 -52 -6 -61 -4 -57 8 4 8 16 15
28 15 11 1 35 7 51 15 35 16 41 17 32 8z m163 -10 c0 -5 -4 -15 -10 -23 -11
-18 -25 -7 -17 15 6 15 27 21 27 8z m-64 -30 c-10 -10 -19 5 -10 18 6 11 8 11
12 0 2 -7 1 -15 -2 -18z m-76 -49 c0 -9 -5 -14 -12 -12 -18 6 -21 28 -4 28 9
0 16 -7 16 -16z"/>
<path d="M2905 6520 c-8 -13 15 -24 27 -12 6 6 4 11 -6 15 -8 3 -18 2 -21 -3z"/>
<path d="M2680 6425 c0 -8 2 -15 4 -15 2 0 6 7 10 15 3 8 1 15 -4 15 -6 0 -10
-7 -10 -15z"/>
<path d="M3540 6426 c0 -9 7 -16 16 -16 17 0 14 22 -4 28 -7 2 -12 -3 -12 -12z"/>
<path d="M3595 6430 c3 -5 13 -10 21 -10 8 0 14 5 14 10 0 6 -9 10 -21 10 -11
0 -17 -4 -14 -10z"/>
<path d="M2560 6410 c-8 -5 -18 -6 -22 -4 -4 3 -8 1 -8 -5 0 -19 20 -22 36 -6
19 18 15 28 -6 15z"/>
<path d="M4305 6300 c-3 -5 -1 -10 4 -10 6 0 11 5 11 10 0 6 -2 10 -4 10 -3 0
-8 -4 -11 -10z"/>
<path d="M2663 6202 c-12 -14 -20 -29 -17 -31 7 -8 47 36 43 47 -2 6 -14 -1
-26 -16z"/>
<path d="M2578 6123 c-32 -68 4 -56 41 15 10 19 9 22 -7 22 -11 0 -24 -14 -34
-37z"/>
<path d="M2190 5855 c-8 -9 -8 -15 -2 -15 12 0 26 19 19 26 -2 2 -10 -2 -17
-11z"/>
<path d="M2050 5814 c0 -8 5 -12 10 -9 6 4 8 11 5 16 -9 14 -15 11 -15 -7z"/>
<path d="M2490 5770 c0 -5 5 -10 11 -10 5 0 7 5 4 10 -3 6 -8 10 -11 10 -2 0
-4 -4 -4 -10z"/>
<path d="M2050 5749 c0 -11 5 -17 10 -14 6 3 10 13 10 21 0 8 -4 14 -10 14 -5
0 -10 -9 -10 -21z"/>
<path d="M3700 5231 c0 -6 -9 -11 -20 -11 -11 0 -20 -4 -20 -10 0 -5 -18 -10
-41 -10 -46 0 -79 -14 -79 -34 0 -20 -140 -31 -355 -28 -276 4 -615 -12 -626
-29 -5 -8 -12 -36 -15 -63 -6 -43 -10 -50 -43 -65 -32 -14 -150 -127 -159
-152 -5 -12 -32 -12 -32 0 0 4 25 35 55 67 49 53 71 91 46 82 -6 -1 -49 -41
-98 -88 -156 -151 -222 -205 -247 -202 -16 2 -25 -3 -28 -16 -6 -22 -68 -57
-68 -39 0 7 -7 4 -14 -5 -15 -21 -32 -23 -38 -5 -20 58 0 260 27 280 6 4 5 10
-4 16 -9 6 -10 11 -2 15 6 4 11 17 11 29 0 12 2 58 3 101 1 49 -2 81 -9 83 -5
2 -21 -32 -34 -74 -21 -69 -24 -103 -28 -293 -2 -123 -9 -220 -14 -227 -6 -7
-19 -13 -29 -13 -25 0 -24 -17 1 -25 22 -7 26 -21 8 -27 -9 -3 -9 -6 0 -12 7
-4 12 -2 12 3 0 16 68 13 118 -4 24 -9 47 -13 52 -10 4 3 10 -2 14 -10 9 -24
20 -18 41 21 11 21 56 67 100 104 44 37 89 77 99 89 11 11 24 21 29 21 6 0 18
7 28 16 15 13 16 20 6 41 -10 23 -8 28 32 63 34 28 43 42 39 58 -7 24 2 28 18
12 11 -11 63 40 89 84 9 15 15 15 45 5 47 -15 60 -34 60 -85 0 -33 5 -46 22
-58 33 -23 36 -21 43 32 12 83 38 153 66 177 15 12 60 30 99 40 62 15 107 17
363 12 427 -8 635 -44 986 -172 134 -49 167 -106 126 -220 -12 -34 -12 -42 -1
-54 18 -18 32 -8 52 37 22 48 21 47 36 35 25 -20 86 -5 72 18 -6 10 30 14 91
10 28 -2 48 -11 69 -32 16 -16 36 -29 44 -29 10 0 12 -7 8 -24 -3 -14 -2 -28
4 -31 6 -4 10 8 10 29 0 37 18 50 27 18 2 -10 14 -18 26 -19 12 0 16 1 10 4
-7 3 -13 11 -13 19 0 8 -6 14 -14 14 -8 0 -17 11 -20 24 -7 29 -63 45 -189 53
-104 7 -114 27 -16 31 113 4 161 -5 201 -41 20 -18 44 -36 53 -42 9 -6 17 -27
19 -48 2 -21 6 -40 10 -44 3 -3 6 -13 6 -22 -1 -13 -4 -12 -17 4 -13 16 -15
17 -10 3 6 -17 -2 -22 -29 -19 -9 1 -11 -45 -5 -77 1 -1 10 2 22 9 27 14 50
-4 31 -23 -13 -13 -16 -99 -4 -113 4 -6 16 -37 27 -70 25 -80 39 -94 31 -30
-15 112 -26 202 -30 243 -4 39 -2 42 20 42 20 0 24 -5 24 -30 0 -17 9 -39 20
-50 24 -24 27 -60 5 -60 -17 0 -18 -6 -5 -35 8 -19 9 -19 9 3 1 16 7 22 25 22
20 0 27 -9 42 -50 11 -29 23 -49 30 -46 6 2 16 0 21 -5 11 -11 43 -2 43 12 0
5 11 3 25 -3 14 -6 25 -15 25 -20 0 -21 19 -5 25 21 3 16 13 35 21 42 9 7 11
16 5 23 -10 12 6 12 304 2 94 -3 175 -6 182 -6 7 0 24 -11 39 -23 25 -22 30
-23 55 -10 26 13 26 14 14 55 -22 76 -151 169 -295 214 -74 23 -102 26 -220
26 -75 0 -148 -5 -164 -11 -23 -9 -32 -9 -46 4 -9 8 -22 15 -28 15 -7 0 -12 5
-12 10 0 6 5 10 10 10 6 0 10 12 10 26 0 17 6 28 20 31 26 7 27 43 1 43 -10 0
-26 -10 -35 -22 -15 -21 -16 -22 -14 -3 2 15 -2 19 -17 17 -26 -5 -45 -21 -45
-38 0 -8 -4 -14 -9 -14 -7 0 -22 -43 -35 -105 -2 -11 -4 12 -5 51 -1 70 0 72
33 98 19 14 58 32 88 38 68 16 484 17 623 1 187 -21 485 -100 579 -153 44 -24
71 -26 62 -5 -3 9 0 15 9 15 8 0 15 -8 15 -17 0 -10 7 -31 15 -47 17 -32 20
-124 6 -174 -8 -25 -7 -32 4 -32 16 0 38 34 28 44 -3 3 -1 6 6 6 7 0 11 6 8
14 -3 8 -1 16 6 19 8 2 8 5 -1 11 -7 4 -12 2 -12 -3 0 -6 -4 -11 -10 -11 -6 0
-9 29 -9 67 1 42 -3 69 -10 71 -17 6 -2 22 21 22 17 0 18 -2 8 -15 -14 -17 0
-20 33 -6 25 9 8 23 -53 44 -54 18 -127 45 -155 58 -11 5 -54 18 -95 29 -41
12 -97 28 -125 36 -27 8 -66 18 -85 23 -19 4 -48 16 -64 26 -16 10 -37 20 -47
20 -25 2 -33 11 -24 25 5 8 22 10 47 7 22 -3 38 -4 36 -2 -16 16 -133 97 -158
110 -27 14 -34 15 -41 3 -6 -9 -9 -9 -9 -1 0 18 -41 27 -51 12 -6 -11 -11 -11
-21 -1 -9 9 -9 12 5 12 9 0 17 5 17 10 0 6 -12 10 -26 10 -14 0 -23 -4 -19
-10 3 -5 2 -10 -4 -10 -6 0 -15 9 -21 20 -6 11 -16 20 -23 19 -7 -1 -19 0 -27
4 -31 12 -233 28 -359 28 -103 0 -138 -3 -156 -15 -20 -13 -25 -13 -35 -1 -16
20 -40 19 -40 -1 0 -8 -5 -25 -11 -37 l-12 -21 -9 23 c-6 18 -11 21 -22 12
-10 -9 -15 -7 -20 6 -3 10 -13 29 -21 43 -13 23 -14 23 -21 5 -4 -11 -13 -34
-20 -52 -17 -44 -19 -113 -4 -146 7 -15 10 -30 6 -34 -8 -8 -255 33 -290 48
-30 14 -32 24 -11 46 12 12 13 18 4 29 -6 8 -8 14 -3 14 4 0 3 5 -4 12 -7 7
-12 22 -12 33 0 32 -34 59 -64 51 -14 -3 -28 -2 -31 4 -3 5 0 10 7 10 7 0 5 5
-6 12 -15 9 -22 7 -33 -8 -13 -17 -14 -17 -28 3 -10 14 -22 19 -40 16 -17 -4
-27 0 -31 11 -4 10 -18 16 -40 16 -18 0 -48 8 -66 18 -18 11 -54 19 -81 20
-26 0 -55 6 -63 13 -8 7 -34 13 -57 14 -23 1 -70 6 -104 10 -45 6 -63 5 -63
-4z m330 -51 c0 -5 -2 -10 -4 -10 -3 0 -8 5 -11 10 -3 6 -1 10 4 10 6 0 11 -4
11 -10z m975 -460 c3 -6 -1 -7 -9 -4 -18 7 -21 14 -7 14 6 0 13 -4 16 -10z
m475 -196 c39 -35 70 -42 36 -9 -9 9 -16 22 -16 28 0 12 5 8 38 -37 12 -16 22
-23 22 -15 0 10 3 10 12 1 17 -17 -5 -38 -57 -51 -65 -16 -93 -14 -100 9 -3
10 -1 28 4 39 6 11 11 31 11 45 0 14 2 26 5 26 3 0 23 -16 45 -36z m-470 -105
c0 -5 -4 -9 -10 -9 -5 0 -10 7 -10 16 0 8 5 12 10 9 6 -3 10 -10 10 -16z"/>
<path d="M1945 5200 c-3 -5 -1 -10 4 -10 6 0 11 5 11 10 0 6 -2 10 -4 10 -3 0
-8 -4 -11 -10z"/>
<path d="M3628 5023 c6 -2 18 -2 25 0 6 3 1 5 -13 5 -14 0 -19 -2 -12 -5z"/>
<path d="M3674 5011 c3 -4 40 -11 82 -15 42 -3 90 -13 107 -21 17 -8 36 -15
43 -15 7 0 19 -7 28 -15 8 -8 27 -16 43 -18 15 -2 37 -8 47 -14 19 -10 18 -11
-3 -42 l-22 -31 40 0 c40 0 55 -15 27 -26 -14 -5 -11 -44 4 -44 12 0 30 26 23
33 -3 4 4 7 16 7 12 0 31 5 42 11 11 6 34 7 50 4 26 -6 28 -9 17 -23 -11 -13
-10 -15 5 -9 9 3 17 2 17 -3 0 -6 9 -10 20 -10 25 0 27 27 3 33 -17 4 -17 5 0
6 24 1 22 32 -3 38 -11 3 -20 9 -20 12 0 11 -129 68 -170 76 -19 4 -54 13 -77
21 -24 7 -57 16 -75 19 -18 3 -65 12 -105 20 -80 17 -147 20 -139 6z"/>
<path d="M5830 4851 c0 -10 19 -25 25 -20 1 2 -3 10 -11 17 -8 7 -14 8 -14 3z"/>
<path d="M3386 4823 c-3 -4 -28 -6 -54 -4 -34 2 -52 -2 -61 -13 -8 -9 -20 -16
-28 -16 -9 0 -13 -6 -9 -15 7 -18 -5 -20 -22 -3 -9 9 -12 7 -12 -10 0 -12 -5
-22 -11 -22 -5 0 -7 5 -4 10 3 6 -1 10 -9 10 -9 0 -16 -7 -16 -15 0 -17 -11
-20 -26 -5 -10 10 -94 -59 -94 -77 0 -15 112 -54 125 -43 11 9 121 13 168 6
15 -2 35 -10 43 -17 10 -8 18 -9 25 -2 6 6 29 7 57 2 26 -4 52 -3 57 1 6 5 41
9 78 9 38 0 74 5 82 11 17 14 54 -1 83 -34 23 -27 29 -56 12 -56 -5 0 -10 -5
-10 -11 0 -5 5 -7 10 -4 6 4 25 -3 44 -14 18 -11 36 -17 40 -13 4 4 12 -1 18
-11 8 -15 17 -17 51 -12 23 4 46 11 51 15 5 5 14 6 21 3 26 -9 20 32 -7 59
-35 34 -35 36 -2 30 15 -3 29 -13 31 -23 7 -27 21 -23 29 6 4 16 0 35 -11 51
l-17 27 36 -28 c20 -15 40 -34 45 -42 6 -12 14 -12 49 -1 42 13 59 32 24 26
-26 -4 -51 19 -45 42 3 12 -2 22 -15 29 -13 7 -18 18 -15 29 3 14 -2 21 -19
25 -33 9 -40 8 -33 -3 12 -20 -13 -10 -26 11 -13 19 -16 19 -44 5 -33 -16 -62
-10 -133 28 -19 9 -36 15 -40 12 -3 -3 -16 1 -29 9 -14 10 -33 13 -46 10 -16
-5 -18 -4 -8 3 14 10 -10 15 -131 28 -48 5 -59 4 -64 -10 -8 -20 -24 -21 -24
-1 0 11 -13 15 -53 15 -30 0 -57 -3 -61 -7z m342 -93 c16 -16 32 -27 35 -23 4
3 7 2 7 -4 0 -6 -18 -13 -40 -17 -22 -3 -40 -11 -40 -16 0 -6 -4 -10 -9 -10
-15 0 -19 59 -4 64 7 3 13 12 13 21 0 21 6 19 38 -15z m-432 -42 c7 -10 -20
-38 -38 -38 -12 0 -10 24 4 38 15 15 25 15 34 0z m-106 -38 c0 -5 -4 -10 -10
-10 -5 0 -10 5 -10 10 0 6 5 10 10 10 6 0 10 -4 10 -10z m265 -10 c4 -6 -7
-10 -27 -10 -25 0 -29 3 -18 10 19 13 37 13 45 0z"/>
<path d="M4110 4705 c0 -8 5 -15 10 -15 6 0 10 7 10 15 0 8 -4 15 -10 15 -5 0
-10 -7 -10 -15z"/>
<path d="M4362 4603 c-10 -19 -5 -43 8 -43 4 0 10 14 12 30 5 33 -6 40 -20 13z"/>
<path d="M3026 4591 c-19 -21 -14 -41 8 -41 16 0 29 41 17 53 -4 4 -15 -1 -25
-12z"/>
<path d="M4319 4524 c-11 -27 -32 -73 -45 -103 -13 -30 -22 -56 -19 -59 7 -7
7 -7 60 96 36 69 45 96 37 104 -9 9 -17 -1 -33 -38z"/>
<path d="M6412 4515 c2 -20 -1 -30 -10 -30 -8 0 -20 -15 -27 -32 -16 -38 -8
-41 29 -12 21 17 25 26 21 56 -2 20 -7 39 -11 42 -3 3 -4 -7 -2 -24z"/>
<path d="M4167 4473 c-4 -3 -7 -17 -7 -30 0 -16 -6 -23 -20 -23 -11 0 -20 -4
-20 -9 0 -15 23 -19 48 -8 16 8 22 19 22 44 0 31 -9 41 -23 26z"/>
<path d="M1667 4430 c-38 -30 -54 -71 -73 -178 -19 -113 -23 -212 -11 -267 8
-39 20 -216 18 -285 -1 -19 2 -46 5 -60 6 -24 6 -24 21 10 8 19 19 68 24 108
6 41 24 126 41 190 19 72 31 143 31 185 1 48 5 67 14 67 7 0 13 7 13 15 0 8
-7 15 -15 15 -20 0 -20 44 0 60 11 9 12 17 4 32 -8 15 -7 24 7 39 15 17 16 19
0 25 -15 6 -15 7 0 19 15 11 15 13 -7 28 -30 22 -41 21 -72 -3z"/>
<path d="M6215 4373 c-11 -3 -25 -12 -32 -20 -7 -9 -27 -15 -51 -15 -56 1 -80
-18 -65 -51 8 -18 8 -28 0 -36 -25 -25 5 -21 40 6 21 16 59 40 86 52 37 18 47
28 47 47 0 13 -1 23 -2 23 -2 -1 -12 -3 -23 -6z"/>
<path d="M4910 4344 c0 -8 5 -12 10 -9 6 4 8 11 5 16 -9 14 -15 11 -15 -7z"/>
<path d="M4226 4322 c-9 -18 -15 -39 -13 -45 2 -7 12 3 21 21 9 18 15 39 13
45 -2 7 -12 -3 -21 -21z"/>
<path d="M5075 4310 c3 -5 8 -10 11 -10 2 0 4 5 4 10 0 6 -5 10 -11 10 -5 0
-7 -4 -4 -10z"/>
<path d="M4830 4190 c0 -5 5 -10 11 -10 5 0 7 5 4 10 -3 6 -8 10 -11 10 -2 0
-4 -4 -4 -10z"/>
<path d="M4874 4142 c2 -17 9 -39 16 -47 7 -8 9 -15 6 -15 -4 0 1 -12 12 -27
10 -16 22 -36 25 -45 4 -10 11 -18 17 -18 7 0 6 10 -3 28 -8 15 -23 47 -33 72
-10 25 -24 54 -31 65 -12 18 -13 17 -9 -13z"/>
<path d="M4095 4119 c-5 -5 -22 -18 -37 -29 -25 -19 -63 -79 -54 -87 6 -6 70
58 91 90 18 28 18 42 0 26z"/>
<path d="M1985 3960 c-8 -13 -66 -40 -87 -40 -10 0 -18 -4 -18 -10 0 -5 -9
-10 -20 -10 -11 0 -20 -4 -20 -10 0 -5 -6 -10 -13 -10 -21 0 -51 -37 -37 -45
8 -5 6 -13 -6 -26 -15 -17 -15 -19 0 -25 9 -3 16 -10 16 -16 0 -5 -5 -6 -10
-3 -6 3 -13 -2 -16 -12 -4 -10 -18 -28 -33 -40 -22 -20 -23 -23 -7 -23 13 0
16 -3 8 -12 -13 -17 -21 -88 -9 -88 4 0 6 -8 3 -17 -3 -10 1 -26 9 -37 13 -17
17 -18 47 -4 18 9 50 19 72 23 36 6 38 5 33 -14 -7 -29 16 -46 42 -29 16 10
21 23 21 58 0 25 5 51 12 58 8 8 8 15 1 24 -29 37 -20 119 23 212 13 28 24 61
24 72 0 23 -25 40 -35 24z"/>
<path d="M4008 3692 c-26 -2 -38 -8 -38 -19 0 -8 -7 -30 -16 -49 -15 -32 -19
-34 -55 -29 -33 4 -39 2 -39 -14 0 -10 9 -30 21 -45 23 -29 20 -76 -6 -76 -8
0 -15 -12 -17 -27 -3 -32 -21 -34 -26 -3 -4 22 -17 26 -28 9 -3 -6 -15 -9 -25
-6 -10 3 -23 -1 -30 -9 -6 -7 -20 -12 -31 -11 -12 1 -23 -3 -25 -10 -3 -7 3
-9 16 -6 15 4 21 1 21 -10 0 -9 -4 -18 -9 -21 -16 -10 -41 5 -41 25 0 11 -8
23 -17 26 -27 10 -42 36 -36 61 4 18 1 22 -21 22 -14 0 -26 -5 -26 -11 0 -5
-4 -8 -10 -4 -6 4 -5 15 2 30 8 19 7 27 -6 40 -9 9 -21 13 -27 9 -6 -3 -15 0
-20 7 -12 19 -11 29 2 27 6 -2 14 3 16 10 3 7 -4 12 -20 12 -13 0 -36 9 -50
20 -14 11 -32 20 -40 20 -20 0 -31 -17 -17 -25 5 -3 10 -13 10 -22 0 -13 -3
-13 -15 -3 -12 10 -18 10 -30 0 -14 -12 -13 -16 7 -38 22 -23 22 -25 3 -20
-11 3 -27 9 -35 12 -10 4 -19 -3 -29 -24 -20 -46 -57 -87 -102 -112 -21 -12
-39 -28 -39 -35 0 -7 -7 -13 -15 -13 -8 0 -17 -10 -20 -23 -4 -12 -16 -27 -28
-32 -12 -6 -22 -19 -23 -30 -2 -36 -4 -39 -16 -27 -26 26 -70 0 -51 -31 4 -6
0 -8 -10 -4 -17 7 -29 -15 -21 -38 4 -9 -6 -26 -25 -44 -25 -24 -28 -31 -17
-40 16 -14 9 -51 -10 -51 -22 0 -27 -21 -8 -34 14 -10 18 -31 20 -100 3 -77
-5 -108 -19 -73 -3 6 -6 -3 -6 -21 l-1 -32 54 5 c34 4 57 2 61 -4 3 -6 2 -11
-4 -11 -15 0 -23 -54 -11 -84 8 -22 7 -31 -6 -43 -13 -14 -17 -14 -25 -2 -7
11 -9 11 -9 -3 0 -9 -3 -23 -6 -32 -4 -12 0 -16 15 -16 12 0 21 5 21 10 0 21
18 9 25 -17 14 -56 14 -94 -2 -100 -8 -3 -12 -12 -9 -19 6 -16 -3 -18 -24 -4
-14 9 -16 14 -19 53 -2 31 -20 18 -27 -20 -4 -21 -13 -47 -20 -58 -8 -11 -14
-28 -14 -38 0 -23 -23 -47 -46 -47 -16 0 -16 1 -1 18 22 24 22 29 -9 48 -25
17 -26 17 -47 -8 -23 -27 -67 -47 -67 -30 0 5 10 21 21 36 30 38 11 53 -24 20
-15 -13 -27 -31 -27 -38 0 -21 -28 -39 -47 -31 -16 6 -16 8 5 22 12 9 22 22
22 30 0 7 7 16 15 19 17 7 21 34 4 34 -5 0 -8 -4 -5 -9 3 -5 -1 -11 -9 -15 -8
-3 -15 -11 -15 -18 0 -34 -82 -83 -103 -61 -12 11 14 33 39 33 19 0 24 5 24
25 0 14 7 28 15 31 16 6 21 34 6 34 -4 0 -20 -11 -35 -25 -15 -14 -31 -25 -37
-25 -5 0 -9 -3 -9 -7 0 -5 -16 -26 -35 -47 -31 -35 -40 -39 -36 -13 1 4 -4 17
-9 28 -14 26 -33 13 -26 -17 6 -21 3 -24 -19 -24 -26 0 -33 18 -14 37 6 6 8
16 4 23 -8 13 -45 4 -60 -14 -5 -7 -22 -16 -37 -19 -20 -5 -28 -3 -31 10 -4
17 -5 17 -6 1 0 -10 -7 -18 -15 -18 -8 0 -17 -11 -20 -25 -4 -14 -11 -25 -18
-25 -7 0 -9 17 -5 53 4 44 2 55 -13 65 -22 14 -30 6 -30 -30 0 -15 -8 -37 -17
-48 -10 -11 -21 -39 -24 -63 -5 -40 -6 -41 -16 -17 -9 23 -6 47 12 93 4 9 3
17 -3 17 -6 0 -15 -13 -21 -30 -5 -16 -14 -30 -20 -30 -13 0 18 59 45 86 19
18 27 40 38 99 2 11 5 25 7 30 6 14 -3 17 -24 9 -27 -10 -32 2 -12 32 16 25
16 27 0 21 -9 -4 -19 -7 -21 -7 -3 0 -9 -11 -14 -25 -6 -16 -18 -25 -32 -26
-13 -1 -35 -3 -50 -5 -30 -3 -40 22 -13 32 8 3 17 14 20 25 5 13 16 19 38 19
44 0 77 25 75 55 -2 26 -12 32 -23 15 -3 -5 -1 -10 5 -10 6 0 -1 -11 -16 -25
-15 -14 -28 -25 -29 -25 -2 0 1 16 5 35 6 26 5 35 -5 35 -8 0 -17 -5 -21 -11
-4 -8 -9 -7 -15 2 -7 11 -9 10 -9 -4 0 -19 -41 -97 -51 -97 -3 0 -10 10 -16
22 -9 21 -10 20 -52 -18 l-44 -39 7 30 c3 17 7 53 8 80 2 39 8 54 25 68 28 23
30 53 3 60 -14 3 -30 -4 -49 -21 -28 -27 -47 -72 -30 -72 5 0 9 5 9 10 0 6 7
10 15 10 8 0 15 -7 15 -15 0 -8 -4 -15 -9 -15 -13 0 -41 -64 -41 -94 0 -16 6
-26 15 -26 12 0 11 -6 -5 -32 -22 -36 -27 -78 -9 -78 7 0 9 -12 5 -35 -4 -19
-3 -35 2 -35 14 0 31 45 22 61 -6 10 3 26 27 52 19 21 36 37 37 35 2 -2 6 -31
9 -65 5 -50 4 -63 -7 -63 -8 0 -23 -16 -35 -35 -11 -19 -25 -35 -31 -35 -5 0
-10 -14 -10 -31 0 -16 4 -28 9 -24 5 3 13 0 16 -5 5 -7 12 -5 20 7 19 26 27
12 13 -25 -10 -25 -10 -34 0 -44 9 -9 15 -4 26 24 8 19 22 40 30 48 14 11 16
9 16 -8 0 -31 -21 -72 -37 -72 -7 0 -13 -4 -13 -9 0 -19 43 -6 57 16 20 31 32
29 29 -4 -2 -19 -10 -29 -23 -31 -27 -4 -26 -50 2 -75 19 -16 19 -17 1 -10
-16 5 -18 3 -13 -12 4 -9 2 -24 -5 -32 -10 -12 -7 -13 16 -7 25 6 28 5 21 -15
-7 -23 4 -28 22 -10 15 15 36 1 29 -18 -3 -8 -1 -24 6 -36 7 -12 11 -29 9 -37
-2 -8 9 -2 24 14 14 15 29 25 33 21 4 -4 1 -10 -5 -12 -7 -3 -13 -12 -13 -20
0 -9 6 -13 15 -9 8 3 15 2 15 -3 0 -5 -7 -14 -15 -21 -20 -17 -19 -32 3 -28
13 2 16 -3 14 -19 -2 -13 2 -23 7 -23 6 0 11 -5 11 -11 0 -13 21 -34 40 -41 8
-2 15 -15 15 -29 0 -19 5 -23 23 -21 28 4 31 -28 2 -35 -11 -3 -17 -9 -14 -14
3 -5 11 -6 17 -2 7 4 24 6 39 4 14 -1 29 3 33 9 5 8 12 5 21 -9 8 -11 21 -18
29 -15 8 4 15 1 15 -4 0 -6 -9 -13 -19 -17 -11 -3 -22 -13 -26 -23 -5 -14 -4
-15 6 -4 15 14 49 16 49 2 0 -5 -4 -10 -10 -10 -5 0 -10 -4 -10 -10 0 -5 9
-10 19 -10 15 0 18 -5 14 -22 -3 -13 -10 -28 -15 -34 -13 -18 35 -23 78 -8 21
7 41 11 44 8 7 -8 -39 -44 -57 -44 -12 0 -13 -3 -4 -14 10 -12 9 -20 -4 -40
-10 -14 -21 -26 -26 -26 -5 0 -9 -9 -9 -20 0 -15 -7 -20 -26 -20 -28 0 -29
-17 -1 -34 13 -8 20 -8 26 2 7 11 10 10 15 -3 3 -9 -1 -23 -9 -32 -11 -11 -13
-19 -5 -28 8 -9 4 -11 -15 -7 -14 2 -25 11 -25 18 0 8 -9 14 -20 14 -24 0 -27
-18 -4 -27 12 -4 13 -8 3 -14 -15 -9 -39 7 -39 26 0 7 -12 13 -27 12 -14 0
-32 8 -38 17 -13 18 -35 22 -35 6 0 -13 86 -130 108 -146 10 -7 13 -16 8 -21
-5 -4 -11 -2 -13 5 -7 20 -20 14 -27 -12 -7 -27 -35 -28 -61 -3 -8 8 -34 18
-58 21 -29 5 -56 17 -79 39 -20 18 -42 31 -49 28 -8 -2 -10 2 -6 13 4 9 2 16
-3 16 -5 0 -37 26 -71 58 -55 51 -66 57 -99 54 -24 -2 -41 2 -49 12 -12 14 -9
16 18 16 35 0 37 6 17 44 -12 23 -15 25 -26 11 -15 -18 -51 -16 -57 2 -2 6 6
15 19 18 35 11 39 26 12 48 -13 10 -24 24 -23 30 3 26 -2 37 -16 37 -8 0 -15
-4 -15 -10 0 -5 -9 -10 -20 -10 -26 0 -25 3 5 36 19 21 22 30 14 45 -5 11 -16
19 -24 19 -18 0 -19 12 -4 27 6 6 8 16 5 22 -9 14 -36 14 -36 1 0 -13 -57 -13
-65 0 -3 5 2 10 12 10 11 0 24 5 31 12 7 7 21 13 32 13 34 0 25 19 -17 35 -35
13 -40 18 -31 33 5 10 21 22 35 28 23 9 25 13 19 51 -4 23 -9 44 -11 46 -4 5
-54 -31 -55 -39 0 -3 10 -11 23 -17 l22 -11 -22 0 c-13 -1 -23 -5 -23 -10 0
-12 -49 -20 -56 -10 -3 5 5 13 18 18 22 9 22 10 2 10 -12 1 -35 -10 -50 -24
-70 -60 -417 -271 -490 -296 -43 -15 -69 -18 -141 -13 -68 5 -102 3 -146 -10
-82 -24 -384 -180 -507 -262 -58 -39 -153 -99 -213 -134 l-107 -64 0 -558 0
-558 3609 0 c3282 0 3609 1 3615 16 11 28 6 182 -6 210 -9 19 -36 37 -98 66
-46 21 -119 59 -161 83 -82 49 -233 95 -331 102 l-57 5 -99 -96 c-54 -53 -102
-96 -106 -96 -11 0 -167 143 -316 288 -69 67 -139 131 -156 141 -17 10 -38 35
-47 54 -38 79 -110 110 -207 88 -121 -28 -145 -27 -180 11 -18 19 -20 33 -18
94 2 46 -2 76 -10 86 -24 29 -97 41 -208 35 -88 -6 -106 -4 -111 8 -6 16 28
73 68 115 103 106 192 230 166 230 -8 0 -13 15 -13 39 -2 44 14 47 36 5 16
-29 30 -31 30 -4 0 11 -4 20 -10 20 -5 0 -10 11 -10 24 0 13 -7 29 -15 36 -12
10 -16 8 -23 -11 -5 -13 -11 -18 -15 -12 -10 17 1 37 25 48 27 12 36 35 14 35
-9 0 -16 -5 -16 -11 0 -6 -14 -9 -32 -7 -31 3 -33 1 -34 -32 -1 -82 -2 -86
-20 -68 -12 12 -17 36 -18 82 -1 53 -4 66 -18 70 -18 4 -26 46 -10 46 11 0 37
-30 45 -52 14 -38 29 -20 39 47 2 11 10 20 17 20 8 0 16 6 19 13 2 6 -2 12 -8
12 -7 0 -6 6 4 15 8 8 21 15 29 15 8 0 17 7 21 15 3 8 10 15 16 15 14 0 13
-43 -2 -58 -17 -17 -1 -27 18 -11 13 10 15 24 11 64 -4 35 -2 56 8 69 8 11 15
29 15 39 0 16 2 17 15 7 18 -15 18 -16 41 35 l18 40 3 -35 c2 -19 9 -45 15
-57 9 -17 7 -25 -7 -39 -14 -15 -18 -15 -26 -3 -5 8 -9 19 -10 24 -3 18 -19
-79 -25 -142 -3 -37 -1 -64 6 -68 5 -3 10 0 11 7 1 7 2 24 2 38 2 19 7 24 23
22 19 -3 23 3 29 48 5 39 13 54 36 71 19 13 28 28 26 42 -1 12 3 21 9 20 18
-3 46 71 50 129 1 29 4 73 5 96 1 24 -2 47 -7 50 -19 14 -44 61 -38 75 3 8 1
18 -5 22 -7 4 -11 -6 -11 -27 -1 -27 -2 -30 -11 -15 -5 9 -19 17 -29 17 -11 0
-20 7 -20 15 0 8 -5 15 -10 15 -6 0 -8 -10 -4 -24 3 -14 1 -33 -5 -43 -10 -17
-10 -17 -11 2 0 11 -7 33 -15 49 -9 17 -18 62 -20 100 -6 95 -8 106 -18 106
-5 0 -6 -32 -3 -70 3 -44 1 -68 -4 -65 -6 4 -10 28 -10 54 0 60 -24 89 -34 41
-3 -17 -13 -38 -21 -46 -13 -14 -15 -12 -15 13 0 22 2 25 10 13 8 -12 10 -9
10 12 0 16 8 33 18 39 17 11 18 15 5 51 -9 26 -11 57 -7 89 6 48 8 49 45 55
31 5 42 13 54 38 8 17 14 45 13 60 -2 16 2 31 7 33 12 4 7 84 -6 97 -4 5 -6
28 -2 52 4 34 1 48 -15 69 l-21 27 -7 -26 c-8 -35 -34 -34 -34 1 0 21 -3 24
-12 15 -20 -20 -28 -14 -28 23 0 39 6 43 26 18 7 -10 14 -13 14 -7 0 6 -11 21
-25 34 -14 13 -25 35 -26 49 0 14 -3 20 -6 14 -2 -7 -9 -13 -15 -13 -6 0 -8 6
-5 14 7 19 -42 72 -63 68 -9 -1 -23 4 -30 13 -7 8 -19 15 -27 15 -7 0 -23 9
-35 20 -12 11 -29 20 -38 20 -9 0 -16 9 -17 21 -1 12 -7 27 -14 33 -9 8 -10 8
-5 -2 10 -17 -13 -72 -29 -72 -21 0 -35 25 -37 64 -1 23 -6 36 -15 36 -7 0
-18 9 -25 20 -7 11 -23 20 -35 20 -25 0 -29 10 -11 28 25 25 -9 39 -114 47
-57 4 -123 9 -148 11 -26 2 -62 -3 -87 -12 -45 -18 -136 -22 -168 -9 -17 8
-18 7 -7 -7 11 -14 8 -16 -27 -14 -22 1 -43 5 -47 9 -4 4 -20 7 -35 7 -18 0
-32 7 -39 20 -6 12 -21 20 -35 20 -14 0 -33 4 -43 9 -68 36 -154 62 -181 56
-17 -3 -32 -2 -36 4 -3 6 -17 11 -31 11 -13 0 -24 5 -24 10 0 6 6 10 14 10 8
0 16 5 18 12 3 7 34 11 91 11 48 0 87 4 87 8 0 25 -96 48 -172 41z m-638 -187
c0 -8 -4 -15 -10 -15 -5 0 -7 7 -4 15 4 8 8 15 10 15 2 0 4 -7 4 -15z m1040
-96 c0 -11 -4 -17 -10 -14 -5 3 -10 13 -10 21 0 8 5 14 10 14 6 0 10 -9 10
-21z m-601 1 c13 -6 17 -17 14 -35 -6 -30 -23 -34 -23 -5 0 11 -7 20 -15 20
-9 0 -12 6 -9 15 7 18 10 18 33 5z m-49 -20 c0 -5 -4 -10 -10 -10 -5 0 -10 5
-10 10 0 6 5 10 10 10 6 0 10 -4 10 -10z m60 -69 c0 -6 -4 -13 -10 -16 -5 -3
-10 1 -10 9 0 9 5 16 10 16 6 0 10 -4 10 -9z m-620 -71 c0 -16 -4 -30 -9 -30
-10 0 -22 40 -15 52 11 18 24 6 24 -22z m691 -3 c-1 -12 -15 -9 -19 4 -3 6 1
10 8 8 6 -3 11 -8 11 -12z m-183 -76 c-10 -16 -10 -23 0 -33 9 -9 15 -9 24 0
16 16 36 15 54 -3 23 -23 35 -18 29 13 -5 20 -4 23 4 11 8 -13 31 -15 131 -14
98 1 123 -2 128 -13 4 -11 16 -13 48 -8 24 3 46 1 49 -4 3 -6 17 -10 30 -10
14 0 44 -8 67 -19 115 -51 121 -52 128 -40 4 6 19 13 33 14 14 2 30 6 36 9 5
3 22 1 37 -4 18 -7 31 -7 37 -1 5 5 32 7 59 4 35 -4 52 -2 58 7 6 10 12 9 31
-1 13 -7 27 -13 31 -14 3 0 10 -3 14 -7 4 -5 19 -8 34 -8 15 0 39 -9 53 -20
14 -11 39 -20 56 -20 18 0 43 -7 56 -16 14 -9 32 -14 40 -10 22 8 60 -9 96
-44 18 -16 42 -30 54 -30 19 0 24 -7 27 -35 4 -33 2 -35 -24 -35 -18 0 -28 -5
-28 -15 0 -19 -19 -20 -26 -1 -3 8 -20 18 -37 22 -18 3 -40 13 -49 21 -18 16
-54 10 -43 -7 12 -19 -25 -10 -46 11 -17 17 -26 19 -43 12 -11 -6 -30 -7 -41
-3 -11 4 -24 5 -28 3 -4 -3 -13 0 -20 5 -15 12 -354 10 -381 -3 -12 -5 -17 -5
-14 1 4 5 -10 8 -30 7 -21 -1 -43 -2 -51 -2 -10 -1 -8 -8 9 -26 19 -20 22 -32
18 -75 -3 -28 -8 -53 -11 -56 -6 -7 -83 10 -167 36 -60 18 -69 33 -49 80 21
45 46 54 113 39 31 -7 59 -10 62 -6 12 11 -8 27 -34 27 -15 0 -37 7 -50 15
-12 9 -28 15 -36 13 -8 -2 -16 2 -18 7 -2 6 9 10 24 11 15 1 33 6 40 12 9 6
32 7 68 1 33 -5 58 -5 64 1 5 5 -11 12 -43 16 -43 5 -54 11 -62 30 -12 34 -43
32 -35 -2 5 -17 3 -23 -4 -19 -5 3 -17 -1 -26 -10 -15 -14 -18 -14 -33 -1 -20
18 -65 10 -57 -10 3 -8 -1 -14 -10 -14 -8 0 -12 4 -9 10 3 5 1 19 -5 31 -9 15
-15 18 -23 10 -17 -17 -48 -13 -71 8 -24 22 -66 13 -66 -14 0 -20 -12 -19 -39
4 -32 28 -127 37 -174 16 -10 -4 -21 -5 -24 -1 -3 3 -11 2 -17 -3 -26 -19 -79
-31 -92 -20 -8 6 -21 8 -30 5 -10 -4 -22 1 -30 11 -19 25 -17 33 6 33 11 0 20
5 20 10 0 6 -4 10 -10 10 -5 0 -10 4 -10 9 0 5 22 12 49 16 37 5 50 11 54 27
3 11 15 22 26 25 12 3 21 12 21 19 0 9 12 14 34 14 19 0 38 5 41 11 4 6 9 8
12 6 2 -3 -1 -14 -9 -26z m-135 -20 c-3 -11 -11 -22 -19 -25 -17 -7 -18 -1 -2
24 16 25 28 26 21 1z m1817 -87 c0 -8 -4 -14 -10 -14 -12 0 -31 35 -23 44 9 8
33 -14 33 -30z m-1460 -164 c0 -5 -7 -10 -15 -10 -8 0 -15 5 -15 10 0 6 7 10
15 10 8 0 15 -4 15 -10z m-156 -33 c-3 -9 -10 -17 -15 -17 -11 0 -12 34 -2 44
11 11 24 -9 17 -27z m778 -5 c4 -4 13 -26 21 -49 14 -41 14 -43 -8 -57 -12 -8
-53 -19 -91 -24 -122 -17 -142 -8 -125 55 14 52 47 81 96 85 46 5 97 0 107
-10z m-553 2 c17 -4 36 -15 41 -25 15 -28 -16 -40 -71 -28 -54 12 -66 23 -49
44 14 16 31 18 79 9z m-999 -23 c0 -6 -4 -13 -10 -16 -5 -3 -10 1 -10 9 0 9 5
16 10 16 6 0 10 -4 10 -9z m424 -5 c21 -7 41 -17 45 -22 27 -38 124 -75 135
-51 3 7 3 2 0 -10 -4 -19 -1 -23 20 -23 14 0 27 4 30 9 3 4 22 11 42 14 30 5
41 2 55 -14 19 -22 39 -18 39 9 0 12 3 13 12 4 7 -7 23 -12 36 -12 26 0 108
-35 117 -50 3 -5 21 -10 38 -10 18 0 66 -10 107 -22 41 -11 95 -23 120 -25 67
-6 73 -9 60 -32 -7 -15 -6 -23 6 -35 20 -20 44 -21 44 0 0 8 -4 13 -9 10 -11
-7 -22 46 -12 57 5 5 26 4 47 -1 22 -6 64 -13 94 -17 30 -3 60 -11 67 -17 7
-6 23 -8 35 -5 12 4 27 2 33 -3 8 -7 32 -3 71 9 32 11 62 17 66 15 5 -3 24 0
43 7 28 10 50 11 105 1 71 -12 83 -10 130 24 8 6 35 16 60 24 25 7 39 15 32
17 -16 6 -5 23 15 23 10 0 13 -6 9 -16 -5 -14 -4 -15 9 -4 20 17 32 5 40 -42
6 -31 4 -38 -9 -38 -9 0 -16 -4 -16 -10 0 -5 5 -10 11 -10 6 0 9 -6 6 -12 -2
-8 -16 -12 -31 -10 -19 3 -26 0 -22 -7 4 -6 15 -11 26 -11 22 0 33 -23 17 -39
-9 -9 -4 -18 17 -37 19 -19 25 -29 17 -37 -15 -15 6 -37 36 -37 16 0 22 -4 17
-12 -5 -7 -7 -25 -6 -40 2 -28 -11 -38 -23 -18 -8 13 -25 13 -25 1 0 -5 6 -16
13 -23 17 -19 18 -68 1 -68 -18 0 -18 -12 3 -49 10 -16 15 -32 12 -36 -10 -9
-39 6 -39 21 0 8 -4 14 -10 14 -8 0 -8 -48 1 -70 1 -3 1 -9 0 -13 -1 -5 12
-29 29 -54 33 -49 34 -61 2 -44 -12 6 -25 11 -30 11 -16 0 -6 -40 16 -60 29
-27 28 -42 -3 -34 -34 8 -31 -7 5 -28 35 -20 49 -46 30 -58 -9 -5 -25 0 -44
14 -35 25 -96 48 -96 36 0 -9 25 -31 54 -45 12 -6 22 -22 24 -38 4 -33 -4 -34
-35 -5 -27 25 -44 17 -20 -10 10 -10 17 -35 17 -55 0 -35 -2 -37 -26 -31 l-25
6 20 -33 c22 -36 28 -79 11 -79 -5 0 -10 4 -10 9 0 5 -8 12 -18 16 -11 3 -24
17 -30 30 -6 14 -18 25 -27 25 -24 0 -17 -26 11 -39 16 -7 24 -17 21 -25 -3
-8 0 -17 7 -19 12 -5 15 -41 4 -52 -9 -9 -39 45 -32 56 6 11 -61 79 -78 79
-14 0 -9 -11 22 -50 33 -42 50 -81 50 -113 -1 -21 -2 -20 -23 6 -12 16 -34 42
-50 59 -42 45 -51 67 -32 74 24 10 9 44 -42 91 -31 30 -43 48 -39 60 9 29 -54
93 -98 100 -29 5 -39 2 -55 -18 -18 -23 -18 -23 -25 -2 -4 12 -5 26 -4 32 2 6
-38 30 -89 53 -63 29 -92 48 -93 60 0 22 8 26 57 32 22 3 50 9 62 14 23 8 22
9 -13 37 -20 16 -36 32 -36 37 0 4 21 8 48 8 30 0 42 3 33 9 -10 7 -8 12 9 24
12 8 19 20 15 26 -3 6 1 14 9 17 18 7 23 74 6 74 -5 0 -10 7 -10 15 0 16 -43
31 -60 20 -6 -4 -9 -13 -6 -21 4 -10 1 -11 -12 -5 -37 19 -134 42 -152 36 -12
-4 -20 -2 -20 5 0 8 -26 10 -82 8 -46 -1 -89 1 -95 5 -7 5 -17 5 -23 2 -5 -3
-10 -1 -10 5 0 15 -51 33 -63 21 -10 -10 -49 3 -77 25 -21 16 -224 12 -272 -6
-21 -8 -38 -19 -38 -26 0 -13 28 -28 48 -25 18 3 15 -46 -3 -53 -14 -5 -14 -9
0 -35 8 -17 15 -36 15 -44 0 -8 7 -20 15 -27 17 -14 11 -32 -8 -25 -7 3 -18 1
-26 -4 -12 -8 -12 -12 1 -25 14 -14 18 -14 28 -1 15 19 70 20 70 2 0 -20 -22
-37 -50 -38 l-25 0 23 -11 c17 -9 26 -8 40 5 23 21 70 24 53 4 -6 -8 -7 -17
-3 -22 4 -4 -3 -4 -15 -1 -16 5 -23 3 -23 -6 0 -8 -21 -25 -47 -38 -46 -22
-47 -24 -23 -30 l25 -7 -28 -12 c-16 -6 -26 -15 -22 -20 3 -6 -4 -15 -15 -21
-25 -13 -46 -4 -31 14 13 15 4 26 -21 26 -13 0 -18 -8 -18 -30 0 -16 -4 -30
-10 -30 -5 0 -10 -8 -10 -17 0 -10 -16 -30 -34 -45 -59 -47 -63 -33 -10 36 20
26 34 49 31 52 -10 10 -54 -16 -71 -41 -11 -17 -23 -24 -35 -20 -14 4 -17 -1
-17 -30 0 -43 -9 -53 -55 -58 -20 -2 -46 -11 -59 -20 -12 -8 -28 -13 -35 -10
-8 2 -21 -7 -30 -20 -9 -14 -25 -27 -35 -30 -12 -3 -20 -14 -20 -26 0 -27 6
-26 47 5 18 14 33 21 33 15 0 -14 -45 -61 -58 -61 -6 0 -16 -9 -22 -20 -6 -11
-20 -20 -30 -20 -11 0 -20 -4 -20 -10 0 -5 -7 -10 -15 -10 -23 0 -18 15 18 54
25 26 33 43 33 72 0 20 -2 32 -4 26 -2 -7 -8 -12 -14 -12 -6 0 -3 9 7 20 10
11 25 20 34 20 11 0 12 3 4 11 -8 8 -32 7 -87 -4 -42 -7 -76 -12 -76 -10 0 2
15 12 33 23 31 20 31 20 6 20 -14 0 -31 -6 -38 -12 -11 -11 -12 -9 -3 8 10 19
37 33 119 64 34 13 46 30 34 49 -9 14 -61 -2 -61 -19 0 -6 -5 -8 -10 -5 -6 4
-9 1 -8 -5 3 -13 0 -15 -79 -54 -62 -31 -63 -31 -63 -9 0 20 38 63 56 63 6 0
17 7 24 15 10 12 10 15 -3 15 -9 0 -19 -5 -22 -10 -4 -6 -10 -8 -15 -5 -8 5
-94 -15 -132 -30 -39 -15 -15 13 25 31 23 10 53 29 67 42 13 13 39 30 57 37
19 8 33 21 33 31 0 14 -7 16 -42 10 -38 -5 -41 -4 -25 8 9 7 17 19 17 25 0 7
-8 10 -17 7 -10 -3 -40 -10 -68 -17 -27 -6 -62 -23 -77 -37 -15 -14 -31 -22
-35 -18 -5 4 11 25 35 46 37 33 48 38 77 33 27 -4 35 -1 45 17 10 19 18 22 56
17 47 -5 49 -4 94 52 14 17 32 31 40 31 12 1 11 3 -3 11 -21 12 -50 4 -74 -19
-11 -12 -18 -13 -20 -5 -3 7 -12 9 -21 6 -10 -4 -6 5 11 20 15 14 27 33 27 42
0 8 5 15 10 15 6 0 10 5 10 10 0 19 -22 10 -27 -10 -3 -12 -18 -27 -34 -36
-16 -8 -32 -26 -35 -39 -3 -14 -10 -25 -16 -25 -5 0 -6 10 -2 23 4 12 8 36 9
52 2 31 28 89 45 100 5 3 10 15 10 25 0 13 9 22 25 26 16 4 25 13 25 25 0 10
5 19 10 19 14 0 12 20 -4 52 -14 26 -13 27 16 37 22 8 35 8 44 0 8 -6 14 -8
14 -3 -1 15 -50 46 -65 40 -17 -6 -29 9 -20 24 5 8 11 8 19 1 16 -13 27 -4 19
15 -6 17 -40 18 -46 2 -4 -10 -6 -10 -6 -1 -1 15 38 53 55 53 6 0 17 7 24 15
8 10 17 12 28 6 22 -13 82 17 61 30 -8 5 -22 6 -31 3 -26 -8 -22 15 6 41 14
13 22 25 20 28 -4 4 24 57 30 57 0 0 18 -6 40 -14z m1304 -45 l3 -34 -47 7
c-26 3 -54 6 -62 6 -11 0 -7 9 13 30 23 24 37 30 60 28 26 -3 30 -7 33 -37z
m122 10 c0 -29 -14 -41 -49 -41 l-36 1 28 24 c28 25 57 33 57 16z m-2894 -28
c-10 -10 -19 5 -10 18 6 11 8 11 12 0 2 -7 1 -15 -2 -18z m3254 -67 c0 -3 -4
-8 -10 -11 -5 -3 -10 -1 -10 4 0 6 5 11 10 11 6 0 10 -2 10 -4z m-3170 -112
c0 -8 -6 -14 -14 -14 -8 0 -17 -6 -19 -12 -3 -7 -6 -1 -6 14 -1 14 5 28 12 31
16 6 27 -1 27 -19z m-10 -80 c0 -14 -4 -22 -10 -19 -5 3 -10 17 -10 31 0 14 4
22 10 19 6 -3 10 -17 10 -31z m155 9 c-8 -31 -13 -39 -20 -31 -9 9 6 58 17 58
6 0 7 -11 3 -27z m805 -103 c0 -5 -4 -10 -10 -10 -5 0 -10 5 -10 10 0 6 5 10
10 10 6 0 10 -4 10 -10z m140 -5 c0 -8 -7 -15 -16 -15 -14 0 -14 3 -4 15 7 8
14 15 16 15 2 0 4 -7 4 -15z m-106 -70 c-8 -32 -43 -53 -55 -34 -5 9 0 23 16
39 14 15 25 33 25 41 1 10 3 10 11 -3 5 -10 7 -29 3 -43z m2396 -2 c0 -22 -2
-25 -10 -13 -13 20 -13 40 0 40 6 0 10 -12 10 -27z m-2313 -8 c-4 -8 -11 -15
-17 -15 -7 0 -7 6 0 21 13 23 26 19 17 -6z m-247 -10 c-7 -8 -17 -15 -23 -15
-5 0 -2 9 8 20 21 23 35 19 15 -5z m-250 -20 c-7 -14 -19 -25 -27 -25 -19 0
-16 10 9 37 26 28 36 22 18 -12z m-303 -12 c-3 -10 -5 -4 -5 12 0 17 2 24 5
18 2 -7 2 -21 0 -30z m427 14 c-3 -8 -12 -18 -20 -21 -11 -4 -11 0 2 20 18 26
28 27 18 1z m313 -18 c-58 -58 -67 -64 -67 -45 0 9 14 25 30 34 17 9 33 25 36
36 4 12 9 15 16 8 6 -6 1 -18 -15 -33z m-600 4 c-9 -9 -20 -13 -24 -9 -4 4 -1
11 7 16 25 16 35 11 17 -7z m473 -3 c0 -5 -7 -10 -16 -10 -8 0 -12 5 -9 10 3
6 10 10 16 10 5 0 9 -4 9 -10z m1721 -4 c5 3 9 -4 9 -14 0 -11 -7 -22 -15 -26
-12 -4 -15 2 -14 27 0 18 3 26 6 19 2 -6 9 -10 14 -6z m840 -13 c5 -14 7 -34
4 -42 -6 -14 -8 -13 -21 3 -16 23 -19 66 -4 66 6 0 15 -12 21 -27z m-2881 -23
c0 -12 -28 -25 -36 -17 -9 9 6 27 22 27 8 0 14 -5 14 -10z m-90 -28 c0 -5 -7
-17 -15 -28 -14 -18 -14 -17 -4 9 12 27 19 34 19 19z m460 1 c0 -5 -12 -13
-26 -20 -26 -12 -26 -12 -9 7 18 20 35 26 35 13z m20 -43 c0 -5 -4 -10 -10
-10 -5 0 -10 5 -10 10 0 6 5 10 10 10 6 0 10 -4 10 -10z m-330 -9 c0 -6 -4
-13 -10 -16 -5 -3 -10 1 -10 9 0 9 5 16 10 16 6 0 10 -4 10 -9z m520 1 c0 -13
-39 -32 -45 -22 -4 6 4 14 17 19 30 12 28 12 28 3z m-1030 -61 c0 -6 -4 -13
-10 -16 -5 -3 -10 1 -10 9 0 9 5 16 10 16 6 0 10 -4 10 -9z m-30 -31 c0 -5 -4
-10 -10 -10 -5 0 -10 5 -10 10 0 6 5 10 10 10 6 0 10 -4 10 -10z m140 -40 c0
-13 -28 -25 -38 -16 -3 4 0 11 8 16 20 13 30 12 30 0z m2119 -74 c-12 -25 -26
-46 -31 -46 -5 0 -4 9 2 19 5 11 10 29 10 40 0 12 7 21 15 21 8 0 15 5 15 12
0 6 3 9 6 5 3 -3 -4 -26 -17 -51z m-495 35 c7 -10 -52 -37 -61 -28 -3 4 0 13
7 22 14 16 46 20 54 6z m1706 5 c0 -3 -4 -8 -10 -11 -5 -3 -10 -1 -10 4 0 6 5
11 10 11 6 0 10 -2 10 -4z m-2650 -21 c0 -2 -10 -10 -22 -16 -21 -11 -22 -11
-9 4 13 16 31 23 31 12z m2627 -27 c-3 -8 -6 -5 -6 6 -1 11 2 17 5 13 3 -3 4
-12 1 -19z m-1151 -15 c-10 -10 -19 5 -10 18 6 11 8 11 12 0 2 -7 1 -15 -2
-18z m65 -3 c5 0 9 -5 9 -11 0 -15 -43 -7 -48 10 -3 10 0 12 12 8 10 -4 22 -7
27 -7z m-708 -39 c-6 -25 -58 -62 -77 -55 -11 4 -12 12 -4 35 11 32 38 40 38
12 1 -15 3 -15 18 4 21 27 32 29 25 4z m457 -11 c0 -5 -5 -10 -11 -10 -5 0 -7
5 -4 10 3 6 8 10 11 10 2 0 4 -4 4 -10z m210 -16 c0 -8 -4 -14 -10 -14 -5 0
-10 9 -10 21 0 11 5 17 10 14 6 -3 10 -13 10 -21z m-2750 -70 c0 -12 -39 -2
-44 12 -14 38 -6 47 19 20 14 -15 25 -29 25 -32z m3011 14 c11 -13 32 -38 46
-55 16 -21 34 -33 49 -33 13 0 29 -9 36 -20 7 -11 20 -20 30 -20 26 0 30 -17
6 -23 -15 -4 -26 0 -35 13 -12 17 -43 28 -43 16 0 -16 15 -36 27 -36 28 0 80
-63 86 -103 8 -53 -11 -44 -46 21 -16 29 -34 52 -40 52 -14 0 -47 35 -47 49 0
11 -39 45 -45 39 -3 -3 8 -22 25 -43 16 -21 30 -42 30 -46 0 -5 6 -9 14 -9 7
0 19 -14 27 -32 7 -17 26 -44 42 -61 31 -31 30 -39 -6 -42 -12 -1 -22 -7 -22
-13 0 -6 -6 -17 -12 -23 -10 -10 -14 -6 -19 19 -4 18 -13 32 -20 32 -9 0 -14
12 -14 38 0 41 -7 56 -31 64 -13 5 -16 2 -12 -13 4 -13 0 -19 -10 -19 -22 0
-37 53 -27 92 4 18 7 48 6 66 -1 17 -3 43 -4 57 -1 14 -7 24 -14 23 -6 -2 -14
5 -16 15 -5 24 13 21 39 -5z m89 -26 c-5 -2 -18 2 -30 8 -17 9 -19 14 -10 25
10 12 15 11 30 -8 10 -12 15 -23 10 -25z m572 23 c3 -14 1 -28 -3 -31 -5 -3
-9 9 -9 25 0 38 6 40 12 6z m-1691 -12 c-4 -15 -12 -28 -19 -31 -7 -2 -10 3
-7 12 3 9 7 23 10 31 8 27 24 16 16 -12z m79 12 c0 -8 -7 -15 -15 -15 -9 0
-12 6 -9 15 4 8 10 15 15 15 5 0 9 -7 9 -15z m760 -25 c0 -5 -7 -7 -15 -4 -8
4 -15 8 -15 10 0 2 7 4 15 4 8 0 15 -4 15 -10z m-1066 -34 c-6 -16 -24 -23
-24 -8 0 10 22 33 27 28 2 -2 1 -11 -3 -20z m1359 18 c11 -11 -3 -24 -18 -18
-8 4 -12 10 -9 15 6 11 18 12 27 3z m-1562 -26 c9 -17 8 -28 -6 -55 -10 -18
-22 -33 -26 -33 -12 0 2 33 20 47 9 6 13 15 8 19 -4 4 -17 -2 -30 -13 -27 -24
-57 -36 -57 -22 0 6 -7 17 -15 25 -22 23 -18 34 13 35 15 0 36 4 47 9 30 13
33 12 46 -12z m541 -8 c3 -18 -1 -35 -8 -41 -11 -9 -12 -3 -9 28 5 46 4 43 9
43 2 0 6 -14 8 -30z m1384 -5 c16 -39 17 -45 7 -45 -9 0 -33 49 -33 67 0 23
11 14 26 -22z m-1636 16 c0 -6 -4 -13 -10 -16 -5 -3 -10 1 -10 9 0 9 5 16 10
16 6 0 10 -4 10 -9z m184 -38 c-11 -45 -24 -51 -24 -10 0 26 4 37 15 37 12 0
14 -7 9 -27z m735 6 c11 -18 11 -23 -1 -30 -8 -5 -15 -2 -20 9 -17 42 -2 57
21 21z m-1039 -25 c-18 -21 -24 -10 -8 15 7 12 14 17 16 11 2 -6 -2 -17 -8
-26z m-1645 -4 c4 -6 -7 -10 -27 -9 -27 0 -30 2 -13 9 27 12 33 12 40 0z
m2908 -41 c-3 -10 -9 -16 -14 -13 -11 6 -12 38 -2 47 10 11 21 -13 16 -34z
m-169 16 c3 -8 1 -15 -4 -15 -6 0 -10 7 -10 15 0 8 2 15 4 15 2 0 6 -7 10 -15z
m-1061 -20 c-3 -9 -8 -14 -10 -11 -3 3 -2 9 2 15 9 16 15 13 8 -4z m1787 -69
c0 -3 -4 -8 -10 -11 -5 -3 -10 -1 -10 4 0 6 5 11 10 11 6 0 10 -2 10 -4z
m-2650 -76 c0 -23 -25 -27 -33 -6 -7 16 1 26 20 26 7 0 13 -9 13 -20z m2173
-69 c-2 -3 -10 4 -17 15 -11 14 -12 23 -3 39 11 18 12 17 17 -15 3 -19 5 -37
3 -39z m387 53 c0 -14 -3 -14 -15 -4 -8 7 -15 14 -15 16 0 2 7 4 15 4 8 0 15
-7 15 -16z m60 -38 c0 -3 -4 -8 -10 -11 -5 -3 -10 -1 -10 4 0 6 5 11 10 11 6
0 10 -2 10 -4z m-1720 -10 c0 -3 -4 -8 -10 -11 -5 -3 -10 -1 -10 4 0 6 5 11
10 11 6 0 10 -2 10 -4z m1146 -23 c-10 -10 -19 5 -10 18 6 11 8 11 12 0 2 -7
1 -15 -2 -18z m628 11 c3 -8 2 -12 -4 -9 -6 3 -10 10 -10 16 0 14 7 11 14 -7z
m-107 -16 c-3 -8 -6 -5 -6 6 -1 11 2 17 5 13 3 -3 4 -12 1 -19z m-3162 -69 c6
-6 6 -12 0 -18 -12 -12 -75 13 -75 29 0 13 58 4 75 -11z m46 -79 c10 -6 19
-15 19 -20 0 -14 -34 -12 -48 2 -26 26 -7 37 29 18z m2814 -330 c-3 -5 -12 -7
-20 -3 -10 3 -15 -1 -15 -12 0 -12 5 -15 16 -11 9 3 19 6 24 6 4 0 10 10 13
21 4 15 12 20 24 17 10 -3 24 1 31 9 15 15 42 17 42 3 0 -6 -11 -16 -25 -22
-22 -10 -25 -16 -20 -44 3 -22 0 -38 -10 -48 -8 -8 -15 -21 -15 -30 0 -8 -4
-18 -10 -21 -5 -3 -10 -24 -10 -45 0 -21 -4 -42 -10 -45 -5 -3 -10 -14 -10
-24 0 -23 -48 -111 -61 -111 -5 0 -8 -5 -7 -12 2 -7 -3 -12 -10 -13 -7 0 -18
-11 -25 -25 -8 -16 -23 -26 -40 -28 -15 -2 -27 -7 -27 -11 0 -19 -52 -28 -145
-25 -55 1 -115 2 -133 3 -18 0 -43 7 -55 16 -24 17 -72 21 -62 5 12 -20 -14
-10 -29 11 -10 15 -15 17 -19 7 -2 -7 -3 -3 -1 8 4 24 -19 49 -36 39 -6 -4 -9
-14 -8 -23 2 -9 -5 -18 -14 -20 -14 -3 -17 3 -15 30 1 18 6 39 10 46 5 7 4 12
-2 12 -6 0 -11 6 -11 13 0 17 57 47 77 40 10 -4 14 -2 10 4 -8 13 15 23 53 23
23 0 29 5 33 30 5 21 14 31 32 36 14 3 25 10 25 15 0 5 15 15 34 23 19 8 38
22 44 31 5 11 23 19 43 20 55 2 69 13 69 52 0 32 1 33 17 18 28 -29 64 -37 83
-20 9 8 22 15 28 15 7 0 12 5 12 11 0 8 5 8 15 -1 11 -9 15 -9 15 -1 0 6 11
16 25 21 14 5 25 17 25 27 0 15 2 16 10 3 5 -8 10 -12 11 -7 1 6 2 11 8 35 1
4 6 -4 12 -16 5 -13 7 -28 4 -32z"/>
<path d="M4092 3038 c-7 -7 -12 -18 -12 -25 0 -11 4 -11 20 -1 11 7 20 18 20
25 0 16 -12 17 -28 1z"/>
<path d="M4386 2955 c-3 -8 -1 -15 4 -15 6 0 10 7 10 15 0 8 -2 15 -4 15 -2 0
-6 -7 -10 -15z"/>
<path d="M4449 2959 c-10 -6 -7 -9 14 -9 29 0 35 5 14 13 -8 3 -20 1 -28 -4z"/>
<path d="M4362 2606 c1 -10 8 -17 13 -17 15 1 12 24 -3 29 -9 3 -13 -2 -10
-12z"/>
<path d="M4225 2581 c-6 -11 9 -23 19 -14 9 9 7 23 -3 23 -6 0 -12 -4 -16 -9z"/>
<path d="M4390 2509 c0 -5 5 -7 10 -4 6 3 10 8 10 11 0 2 -4 4 -10 4 -5 0 -10
-5 -10 -11z"/>
<path d="M3252 2460 c-7 -11 -10 -20 -6 -20 13 0 44 21 44 30 0 17 -25 11 -38
-10z"/>
<path d="M3780 2078 c0 -4 7 -8 15 -8 8 0 15 4 15 8 0 5 -7 9 -15 9 -8 0 -15
-4 -15 -9z"/>
<path d="M3300 2036 c0 -17 -27 -29 -35 -16 -11 19 -60 11 -74 -11 -12 -20
-11 -21 6 -14 42 17 56 18 65 2 10 -19 53 -8 53 14 0 8 4 20 8 27 5 8 3 12 -7
12 -9 0 -16 -6 -16 -14z"/>
<path d="M3610 1995 c-16 -20 3 -20 45 0 l30 13 -31 1 c-17 1 -37 -6 -44 -14z"/>
<path d="M3493 1937 c-66 -67 -73 -81 -46 -91 23 -9 74 51 70 83 -2 21 4 26
36 34 21 5 37 15 37 23 0 30 -36 11 -97 -49z"/>
<path d="M5101 1951 c-12 -8 -12 -12 -2 -25 14 -17 41 -22 41 -8 0 20 -26 41
-39 33z"/>
<path d="M3545 1930 c-3 -5 1 -10 9 -10 8 0 18 5 21 10 3 6 -1 10 -9 10 -8 0
-18 -4 -21 -10z"/>
<path d="M3400 1896 c-7 -9 -24 -13 -42 -11 -31 4 -85 -11 -75 -21 3 -3 29 -7
58 -7 42 -2 58 3 76 19 13 12 23 24 23 28 0 12 -28 6 -40 -8z"/>
<path d="M5053 1843 c9 -9 19 -14 23 -11 10 10 -6 28 -24 28 -15 0 -15 -1 1
-17z"/>
<path d="M4970 1806 c0 -9 -9 -12 -27 -8 -22 3 -26 2 -16 -8 6 -7 30 -14 52
-16 l41 -3 -16 24 c-18 27 -34 33 -34 11z"/>
<path d="M4926 1742 c-7 -12 31 -52 49 -52 19 0 19 5 -1 35 -16 25 -38 32 -48
17z"/>
<path d="M4740 3590 c0 -6 11 -15 25 -20 14 -5 25 -15 25 -21 0 -6 9 -9 20 -6
13 3 26 -3 38 -18 13 -17 23 -20 34 -14 21 12 12 44 -20 69 -27 21 -122 29
-122 10z"/>
<path d="M1928 3473 c7 -3 16 -2 19 1 4 3 -2 6 -13 5 -11 0 -14 -3 -6 -6z"/>
<path d="M1650 3423 c21 -56 46 -73 37 -25 -6 30 -34 72 -48 72 -4 0 1 -21 11
-47z"/>
<path d="M1908 3395 c-3 -14 -1 -25 3 -25 5 0 9 7 9 15 0 8 5 15 10 15 6 0 10
5 10 10 0 21 -28 9 -32 -15z"/>
<path d="M1911 3306 c-8 -9 -11 -19 -7 -23 9 -9 29 13 24 27 -2 8 -8 7 -17 -4z"/>
<path d="M1887 3263 c-4 -3 -7 -14 -7 -22 0 -9 -8 -21 -18 -27 -9 -6 -30 -30
-46 -53 -24 -34 -26 -43 -16 -56 11 -13 8 -16 -19 -21 -43 -9 -35 -24 21 -41
26 -7 56 -24 66 -38 11 -14 27 -25 36 -25 19 0 21 -11 4 -28 -7 -7 -14 -31
-15 -54 -3 -38 -2 -40 10 -23 19 29 37 94 27 100 -4 3 -6 14 -3 25 4 16 0 20
-18 20 l-24 1 23 19 c12 10 24 31 26 47 2 15 1 23 -1 16 -2 -6 -11 -14 -20
-17 -25 -10 -7 45 24 70 15 13 21 24 15 28 -6 3 -13 2 -17 -4 -16 -26 -27 -7
-23 40 5 47 -5 64 -25 43z"/>
<path d="M1980 3195 c0 -9 5 -15 11 -13 6 2 11 8 11 13 0 5 -5 11 -11 13 -6 2
-11 -4 -11 -13z"/>
<path d="M2922 2990 c0 -14 2 -19 5 -12 2 6 2 18 0 25 -3 6 -5 1 -5 -13z"/>
<path d="M2097 2967 c-11 -29 -9 -53 4 -40 6 6 9 21 7 34 -3 21 -4 22 -11 6z"/>
<path d="M2026 2896 c-26 -23 -35 -56 -16 -56 6 0 13 8 17 18 3 9 15 27 26 40
27 29 5 28 -27 -2z"/>
<path d="M1910 2839 c0 -5 5 -7 10 -4 6 3 10 8 10 11 0 2 -4 4 -10 4 -5 0 -10
-5 -10 -11z"/>
<path d="M1880 2809 c0 -5 5 -7 10 -4 6 3 10 8 10 11 0 2 -4 4 -10 4 -5 0 -10
-5 -10 -11z"/>
<path d="M2056 2805 c-3 -8 -2 -15 3 -15 5 0 14 7 21 15 10 12 10 15 -3 15 -8
0 -17 -7 -21 -15z"/>
<path d="M1988 2733 c-7 -16 -18 -36 -26 -45 -14 -16 -9 -38 7 -38 9 0 51 83
51 100 0 20 -21 9 -32 -17z"/>
<path d="M2767 2633 c-4 -3 -7 -13 -7 -21 0 -12 3 -12 15 -2 8 7 15 16 15 21
0 11 -14 12 -23 2z"/>
<path d="M2884 2626 c-10 -27 3 -30 38 -7 22 14 27 21 16 21 -10 0 -18 -5 -18
-11 0 -8 -5 -8 -15 1 -12 10 -16 9 -21 -4z"/>
<path d="M5455 2621 c-6 -11 -5 -12 17 -15 6 0 12 -9 14 -19 3 -23 12 -33 21
-23 4 3 2 19 -3 34 -10 28 -37 41 -49 23z"/>
<path d="M2975 2579 c-4 -6 -5 -12 -2 -15 2 -3 7 2 10 11 7 17 1 20 -8 4z"/>
<path d="M2831 2548 c-17 -17 -31 -34 -31 -37 1 -16 19 -33 29 -27 10 7 51 79
51 91 0 13 -20 2 -49 -27z"/>
<path d="M2886 2495 c4 -8 8 -15 10 -15 2 0 4 7 4 15 0 8 -4 15 -10 15 -5 0
-7 -7 -4 -15z"/>
<path d="M2505 2480 c3 -5 8 -10 11 -10 2 0 4 5 4 10 0 6 -5 10 -11 10 -5 0
-7 -4 -4 -10z"/>
<path d="M5535 2330 c-3 -5 1 -10 10 -10 9 0 13 5 10 10 -3 6 -8 10 -10 10 -2
0 -7 -4 -10 -10z"/>
<path d="M5661 2264 c0 -11 3 -14 6 -6 3 7 2 16 -1 19 -3 4 -6 -2 -5 -13z"/>
<path d="M5690 2259 c0 -5 5 -7 10 -4 6 3 10 8 10 11 0 2 -4 4 -10 4 -5 0 -10
-5 -10 -11z"/>
<path d="M5736 2235 c-9 -25 -7 -73 4 -80 9 -6 16 15 22 64 3 28 -16 40 -26
16z"/>
<path d="M5694 2140 c4 -25 2 -40 -4 -40 -5 0 -10 -17 -10 -37 0 -40 17 -36
25 7 2 13 9 28 15 34 14 14 13 49 -2 64 -22 22 -31 12 -24 -28z"/>
<path d="M2070 2010 c0 -5 5 -10 10 -10 6 0 10 5 10 10 0 6 -4 10 -10 10 -5 0
-10 -4 -10 -10z"/>
<path d="M1710 1850 c0 -5 12 -10 26 -10 14 0 23 4 19 10 -3 6 -15 10 -26 10
-10 0 -19 -4 -19 -10z"/>
<path d="M5402 1650 c0 -14 2 -19 5 -12 2 6 2 18 0 25 -3 6 -5 1 -5 -13z"/>
<path d="M5411 1548 c-8 -22 -8 -35 -1 -42 13 -13 30 9 30 41 0 35 -17 36 -29
1z"/>
</g>
</svg>
